<svg width="23" height="23" viewBox="0 0 23 23" fill="none" xmlns="http://www.w3.org/2000/svg">
<g clip-path="url(#clip0_2_3261)">
<path fill-rule="evenodd" clip-rule="evenodd" d="M22.9875 10.898C22.8555 8.24217 21.8077 5.7142 20.0225 3.74435C18.2373 1.77449 15.8249 0.48449 13.1961 0.0939055C10.5673 -0.296679 7.88437 0.236294 5.60407 1.60211C3.32378 2.96792 1.58701 5.08217 0.689367 7.58499C0.163652 9.02912 -0.0650942 10.5646 0.0168523 12.0994C0.176081 15.1471 1.53884 18.0067 3.80535 20.0491C6.07186 22.0915 9.05645 23.1494 12.1025 22.9901C15.1486 22.8308 18.0067 21.4673 20.0481 19.1996C22.0894 16.9319 23.1467 13.9457 22.9875 10.898ZM10.9532 21.9086L10.2709 21.8328C5.54614 21.2308 1.71159 16.5941 1.71159 11.4974C1.71193 10.7631 1.79395 10.0311 1.95614 9.31489L2.20069 8.23829L8.64949 14.693V16.0974C8.65078 16.5452 8.82931 16.9743 9.14601 17.2907C9.46271 17.6071 9.89178 17.7851 10.3393 17.7857H10.9507L10.9532 21.9086ZM18.725 18.121L18.0133 18.8966L17.6905 17.8958C17.5844 17.5533 17.3719 17.2535 17.0838 17.0401C16.7957 16.8267 16.4472 16.7108 16.0887 16.7091H14.328V12.6474C14.3273 12.5049 14.2704 12.3683 14.1697 12.2675C14.0689 12.1667 13.9324 12.1098 13.7899 12.1091H6.27735V8.58574H9.18995C9.33244 8.58509 9.46891 8.52817 9.56967 8.42736C9.67043 8.32655 9.72732 8.19001 9.72796 8.04744V5.13818H12.6381C13.0857 5.13754 13.5147 4.95954 13.8314 4.64313C14.1481 4.32672 14.3267 3.89768 14.328 3.44989V2.07233L15.1619 2.40999C16.6321 2.99915 17.9374 3.93669 18.9656 5.14204C19.9938 6.34739 20.714 7.78449 21.0645 9.32985C21.415 10.8752 21.3852 12.4826 20.9777 14.0139C20.5701 15.5452 19.7971 16.9546 18.725 18.121Z" fill="#70869C"/>
<path d="M15.1622 2.40996L14.3283 2.0723V3.4474C14.3277 3.89562 14.1494 4.32529 13.8327 4.64222C13.5159 4.95916 13.0865 5.1375 12.6385 5.13815H9.72832V8.04985C9.72768 8.19242 9.67079 8.32896 9.57003 8.42977C9.46927 8.53058 9.3328 8.5875 9.19031 8.58815H6.27771V12.1116H13.7903C13.9328 12.1122 14.0693 12.1691 14.17 12.2699C14.2708 12.3707 14.3277 12.5073 14.3283 12.6498V16.7116H16.0891C16.4475 16.7132 16.7961 16.8291 17.0842 17.0425C17.3722 17.2559 17.5848 17.5557 17.6909 17.8983L18.0137 18.899L18.7253 18.1234C19.798 16.957 20.5715 15.5474 20.9793 14.0159C21.3871 12.4843 21.4171 10.8765 21.0666 9.3308C20.7161 7.78508 19.9956 6.34766 18.9671 5.14211C17.9387 3.93657 16.6329 2.99898 15.1622 2.40996ZM13.7903 10.8857H7.50046V9.8091H9.19031C9.6571 9.80846 10.1046 9.62264 10.4346 9.2924C10.7647 8.96216 10.9504 8.51444 10.9511 8.0474V6.36155H12.6385C13.3297 6.36121 13.9983 6.1149 14.5248 5.66664C15.0512 5.21839 15.4011 4.59742 15.5119 3.91474C16.6069 4.49128 17.5639 5.29849 18.3171 6.28075C19.0702 7.26302 19.6015 8.39697 19.8744 9.60448C20.1473 10.812 20.1553 12.0643 19.8978 13.2752C19.6403 14.4861 19.1235 15.6268 18.383 16.6186C18.1133 16.2662 17.766 15.9806 17.3682 15.7842C16.9704 15.5877 16.5327 15.4856 16.0891 15.4857H15.5511V12.6474C15.5504 12.1804 15.3647 11.7326 15.0346 11.4024C14.7046 11.0722 14.2571 10.8863 13.7903 10.8857Z" fill="#70869C"/>
<path d="M10.3393 17.7859C9.89172 17.7853 9.46264 17.6073 9.14594 17.2909C8.82925 16.9744 8.65072 16.5454 8.64942 16.0976V14.6931L2.20062 8.23846L1.95607 9.31506C1.79388 10.0312 1.71186 10.7633 1.71152 11.4976C1.68951 16.5943 5.53629 21.231 10.2708 21.8329L10.9604 21.9186V17.7859H10.3393ZM9.72789 20.497C5.91046 19.6308 2.91226 15.7477 2.91226 11.5001C2.91214 11.2418 2.9252 10.9838 2.95139 10.7269L7.42667 15.2045V16.1001C7.42738 16.7664 7.65611 17.4124 8.07479 17.9305C8.49347 18.4487 9.07686 18.8078 9.72789 18.9481V20.497Z" fill="#70869C"/>
</g>
<defs>
<clipPath id="clip0_2_3261">
<rect width="23" height="23" fill="white"/>
</clipPath>
</defs>
</svg>
