<svg width="23" height="23" viewBox="0 0 23 23" fill="none" xmlns="http://www.w3.org/2000/svg">
<path d="M14.8094 1.99108L14.0352 2.82227L17.4464 5.99982L18.2206 5.16863L14.8094 1.99108Z" fill="#98A7B9"/>
<path d="M23 23H0V18.2178H23V23ZM1.13861 21.8613H21.8614V19.3564H1.13861V21.8613Z" fill="#98A7B9"/>
<path d="M4.38715 12.4644L3.58203 13.2695L6.99736 16.6849L7.80248 15.8797L4.38715 12.4644Z" fill="#98A7B9"/>
<path d="M7.638 16.8514H3.41602V12.6317L15.6151 0.43262C15.8926 0.155891 16.2685 0.000488281 16.6604 0.000488281C17.0523 0.000488281 17.4281 0.155891 17.7056 0.43262L19.8371 2.56411C19.9743 2.70116 20.0832 2.86391 20.1575 3.04307C20.2318 3.22223 20.27 3.41427 20.27 3.60821C20.27 3.80216 20.2318 3.9942 20.1575 4.17336C20.0832 4.35251 19.9743 4.51527 19.8371 4.65232L7.638 16.8514ZM6.26027 15.7128H7.17116L15.9408 6.94549L15.5946 6.60391L6.26027 15.7128ZM4.55463 15.7128H6.25572L4.55463 14.014V15.7128ZM5.92097 13.7772L6.2671 14.1188L14.6359 5.9549L14.1531 5.5541L5.92097 13.7772ZM4.55463 13.094V13.5335L13.5406 4.5544L13.3128 4.32668L4.55463 13.094ZM14.119 3.52965L16.7378 6.14846L19.031 3.84846C19.0628 3.8171 19.0882 3.7797 19.1054 3.73846C19.1227 3.69721 19.1316 3.65294 19.1316 3.60821C19.1316 3.56349 19.1227 3.51922 19.1054 3.47797C19.0882 3.43673 19.0628 3.39933 19.031 3.36797L16.8995 1.23648C16.8682 1.20495 16.8309 1.17992 16.7899 1.16284C16.7488 1.14576 16.7048 1.13697 16.6604 1.13697C16.6159 1.13697 16.5719 1.14576 16.5309 1.16284C16.4898 1.17992 16.4526 1.20495 16.4213 1.23648L14.119 3.52965Z" fill="#98A7B9"/>
</svg>
