<svg width="23" height="23" viewBox="0 0 23 23" fill="none" xmlns="http://www.w3.org/2000/svg">
<g clip-path="url(#clip0_2_3268)">
<path d="M11.3372 21.2174C9.82371 21.2187 8.33493 20.8304 7.01182 20.0894C6.96624 20.0691 6.92536 20.0394 6.89179 20.0022C6.85822 19.9651 6.8327 19.9213 6.81685 19.8736C6.801 19.826 6.79516 19.7755 6.79972 19.7254C6.80428 19.6754 6.81913 19.6268 6.84332 19.5829C6.86751 19.5389 6.90052 19.5006 6.94024 19.4702C6.97995 19.4398 7.02551 19.4181 7.07401 19.4065C7.1225 19.3948 7.17287 19.3935 7.2219 19.4025C7.27094 19.4116 7.31756 19.4309 7.35881 19.4591C8.57493 20.1442 9.94417 20.5054 11.3372 20.5087C12.5984 20.5132 13.8431 20.2198 14.9716 19.6521C15.0137 19.6311 15.0594 19.6187 15.1062 19.6155C15.153 19.6123 15.1999 19.6185 15.2444 19.6336C15.2888 19.6487 15.3299 19.6725 15.3652 19.7037C15.4005 19.7348 15.4294 19.7726 15.4502 19.815C15.4711 19.8574 15.4834 19.9035 15.4865 19.9507C15.4897 19.9978 15.4836 20.0452 15.4686 20.09C15.4536 20.1348 15.43 20.1762 15.3991 20.2118C15.3683 20.2474 15.3307 20.2766 15.2887 20.2975C14.0605 20.91 12.7074 21.2249 11.3372 21.2174Z" fill="#70869C"/>
<path d="M11.3367 21.4135C9.79056 21.4129 8.27008 21.0154 6.91852 20.2584C6.82354 20.2059 6.74625 20.126 6.69655 20.029C6.64685 19.9319 6.62699 19.8221 6.63952 19.7136C6.65204 19.6051 6.69639 19.5029 6.76687 19.42C6.83735 19.337 6.93078 19.2772 7.03518 19.2481C7.10413 19.2274 7.17652 19.221 7.24798 19.2293C7.31944 19.2376 7.38849 19.2604 7.45097 19.2963C8.6412 19.9606 9.97923 20.3093 11.3396 20.3097C12.5718 20.3124 13.7875 20.0254 14.8903 19.4712C15.0209 19.4068 15.1714 19.397 15.3091 19.4441C15.4409 19.4936 15.5483 19.5932 15.6082 19.7216C15.6731 19.8528 15.6839 20.0046 15.6381 20.1438C15.5871 20.2756 15.4889 20.3832 15.3629 20.4454C14.1134 21.0784 12.735 21.4098 11.3367 21.4135ZM7.17877 19.6039H7.1309C7.11009 19.6097 7.09063 19.6196 7.07367 19.6331C7.05672 19.6465 7.04261 19.6633 7.03219 19.6824C7.01082 19.7216 7.00574 19.7677 7.01808 19.8107C7.03041 19.8537 7.05916 19.8899 7.098 19.9116C8.39338 20.6419 9.8525 21.0261 11.3367 21.0275C12.6782 21.034 14.0027 20.7241 15.2044 20.1227C15.2245 20.1138 15.2425 20.1005 15.2569 20.0839C15.2714 20.0672 15.2821 20.0475 15.2881 20.0262C15.297 20.0057 15.3015 19.9836 15.3015 19.9613C15.3015 19.939 15.297 19.917 15.2881 19.8965C15.2785 19.8767 15.2651 19.8591 15.2487 19.8446C15.2323 19.8301 15.2131 19.819 15.1924 19.812C15.1721 19.8032 15.1502 19.7986 15.1281 19.7986C15.106 19.7986 15.0841 19.8032 15.0638 19.812C13.9089 20.3917 12.6357 20.6912 11.3456 20.6867C9.92112 20.6876 8.51991 20.3222 7.27449 19.6251C7.24494 19.6098 7.21195 19.6025 7.17877 19.6039Z" fill="#70869C"/>
<path d="M13.2961 19.5887L14.9443 20.0653L14.4717 21.7271L15.3721 21.2234L15.8447 19.5616L14.1965 19.0851L13.2961 19.5887Z" fill="#70869C"/>
<path d="M14.1639 22.1163L14.7113 20.2071L12.8029 19.6462L14.1729 18.8801L16.0783 19.432L15.5309 21.3532L14.1639 22.1163ZM13.79 19.5316L15.1809 19.9327L14.7801 21.3351L15.2108 21.0938L15.6087 19.6944L14.2207 19.3023L13.79 19.5316Z" fill="#70869C"/>
<path d="M19.8826 12.6008C19.7874 12.6008 19.6961 12.5627 19.6288 12.4948C19.5615 12.427 19.5237 12.3349 19.5237 12.2389C19.5243 10.8455 19.1749 9.47468 18.5079 8.25428C17.841 7.03389 16.8784 6.00372 15.7098 5.2599C15.6447 5.20293 15.6022 5.12427 15.5899 5.03829C15.5776 4.9523 15.5964 4.86472 15.6428 4.79155C15.6892 4.71838 15.7603 4.66449 15.8428 4.63973C15.9254 4.61498 16.0141 4.621 16.0927 4.6567C17.3616 5.46569 18.4071 6.58502 19.1319 7.91065C19.8568 9.23628 20.2375 10.7252 20.2386 12.2389C20.239 12.2863 20.2301 12.3333 20.2123 12.3772C20.1946 12.4211 20.1685 12.461 20.1354 12.4947C20.1023 12.5283 20.0629 12.555 20.0195 12.5732C19.9761 12.5915 19.9296 12.6008 19.8826 12.6008Z" fill="#70869C"/>
<path d="M19.8827 12.7908C19.7376 12.7908 19.5983 12.7326 19.4957 12.6291C19.393 12.5256 19.3353 12.3852 19.3353 12.2388C19.3342 10.8789 18.9919 9.54128 18.3402 8.35057C17.6885 7.15987 16.7487 6.15473 15.6082 5.4287C15.4863 5.35006 15.4003 5.22596 15.3689 5.08354C15.3375 4.94112 15.3633 4.79196 15.4407 4.66867C15.5182 4.54528 15.6411 4.4579 15.7824 4.42568C15.9236 4.39346 16.0718 4.41902 16.1945 4.49676C17.4906 5.32257 18.5585 6.4654 19.2991 7.81898C20.0396 9.17256 20.4287 10.693 20.4301 12.2388C20.4301 12.3852 20.3725 12.5256 20.2698 12.6291C20.1672 12.7326 20.0279 12.7908 19.8827 12.7908ZM15.9013 4.78629C15.8732 4.78616 15.8455 4.79329 15.8209 4.80702C15.7963 4.82075 15.7756 4.84061 15.7607 4.86471C15.7487 4.88323 15.7404 4.90401 15.7364 4.92581C15.7324 4.94762 15.7328 4.97 15.7375 4.99165C15.7423 5.0133 15.7513 5.03378 15.764 5.05186C15.7767 5.06994 15.7929 5.08527 15.8116 5.09694C17.0046 5.86007 17.9867 6.91507 18.6666 8.16378C19.3466 9.41249 19.7021 10.8143 19.7003 12.2388C19.7003 12.2836 19.7179 12.3266 19.7493 12.3583C19.7807 12.3899 19.8234 12.4077 19.8678 12.4077C19.9122 12.4077 19.9548 12.3899 19.9862 12.3583C20.0176 12.3266 20.0353 12.2836 20.0353 12.2388C20.034 10.7599 19.6627 9.30522 18.9558 8.00939C18.2489 6.71357 17.2292 5.61848 15.9911 4.8255C15.965 4.80482 15.9341 4.79131 15.9013 4.78629Z" fill="#70869C"/>
<path d="M16.5358 6.7315L16.0842 5.06365L17.7383 4.60823L16.8439 4.0925L15.1927 4.54791L15.6414 6.21576L16.5358 6.7315Z" fill="#70869C"/>
<path d="M16.8379 7.12672L15.4799 6.33352L14.9564 4.41233L16.8679 3.88754L18.2468 4.6717L16.3324 5.19649L16.8379 7.12672ZM15.803 6.08922L16.2307 6.33352L15.8538 4.92806L17.2507 4.54503L16.823 4.29772L15.4261 4.68075L15.803 6.08922Z" fill="#70869C"/>
<path d="M2.82935 11.7774H2.79346C2.69895 11.7674 2.61211 11.7204 2.55167 11.6465C2.49123 11.5726 2.46204 11.4777 2.4704 11.3823C2.61541 9.85866 3.14471 8.39782 4.00792 7.13875C4.85477 5.90478 5.99271 4.90254 7.31928 4.22228C7.40377 4.17909 7.50181 4.1715 7.59185 4.2012C7.68189 4.23089 7.75654 4.29543 7.79938 4.38062C7.84222 4.46581 7.84974 4.56467 7.82029 4.65545C7.79084 4.74623 7.72683 4.82149 7.64233 4.86469C6.40775 5.49595 5.3515 6.43167 4.57174 7.58487C3.79198 8.73807 3.31404 10.0713 3.18233 11.4607C3.17272 11.5481 3.13133 11.6289 3.06614 11.6873C3.00096 11.7458 2.9166 11.7779 2.82935 11.7774Z" fill="#70869C"/>
<path d="M2.82991 11.9703H2.77607C2.70433 11.9635 2.63462 11.9425 2.57096 11.9085C2.50729 11.8744 2.45091 11.8281 2.40506 11.772C2.3592 11.716 2.32477 11.6514 2.30374 11.5819C2.28271 11.5124 2.27549 11.4394 2.2825 11.3671C2.42936 9.82649 2.96025 8.34834 3.8258 7.07013C4.69135 5.79192 5.86345 4.75518 7.23308 4.05632C7.29754 4.01852 7.36899 3.99439 7.44303 3.98542C7.51707 3.97645 7.59214 3.98283 7.66365 4.00416C7.73516 4.02549 7.80159 4.06134 7.85887 4.10948C7.91615 4.15763 7.96306 4.21707 7.99674 4.28416C8.03042 4.35125 8.05014 4.42456 8.05471 4.49961C8.05927 4.57466 8.04858 4.64986 8.02329 4.72059C7.998 4.79132 7.95864 4.8561 7.90763 4.91094C7.85662 4.96579 7.79503 5.00955 7.72665 5.03954C6.53603 5.65077 5.5144 6.55026 4.75331 7.65742C3.97819 8.78515 3.50336 10.0947 3.37432 11.4606C3.36379 11.599 3.30191 11.7284 3.201 11.8228C3.1001 11.9173 2.9676 11.9699 2.82991 11.9703ZM7.47837 4.37903C7.45232 4.37853 7.42657 4.38476 7.40359 4.39713C6.09093 5.0656 4.96764 6.05848 4.13855 7.28311C3.30947 8.50775 2.80162 9.9242 2.6624 11.4003C2.65972 11.4223 2.66153 11.4446 2.6677 11.4658C2.67387 11.4871 2.68428 11.5069 2.69829 11.5239C2.71202 11.5414 2.72922 11.5558 2.7488 11.5662C2.76837 11.5766 2.78989 11.5828 2.81196 11.5843H2.82991C2.87155 11.5844 2.91168 11.5686 2.94221 11.54C2.97274 11.5115 2.9914 11.4723 2.99443 11.4304C3.13134 10.0119 3.62121 8.65122 4.41865 7.47445C5.21608 6.29769 6.29525 5.34294 7.55614 4.69873C7.57614 4.68881 7.59397 4.67496 7.6086 4.658C7.62322 4.64104 7.63434 4.62131 7.6413 4.59996C7.64827 4.57862 7.65094 4.55608 7.64915 4.53368C7.64737 4.51128 7.64117 4.48947 7.63092 4.46951C7.62096 4.44979 7.60704 4.43237 7.59005 4.41835C7.57306 4.40433 7.55336 4.39402 7.53221 4.38808C7.51502 4.38155 7.49673 4.37847 7.47837 4.37903Z" fill="#70869C"/>
<path d="M4.11271 10.046L2.84141 11.2042L1.69276 9.92236L1.63892 10.9569L2.78757 12.2417L4.06186 11.0805L4.11271 10.046Z" fill="#70869C"/>
<path d="M2.77601 12.5103L1.44788 11.0264L1.52565 9.44907L2.85378 10.9329L4.32549 9.59383L4.24772 11.1591L2.77601 12.5103ZM1.83375 10.8877L2.80293 11.9704L3.88877 10.9933V10.4956L2.82686 11.4758L1.85768 10.3931L1.83375 10.8877Z" fill="#70869C"/>
<path d="M11.3367 5.80865C10.8042 5.80865 10.2837 5.64945 9.84101 5.35119C9.39828 5.05293 9.05322 4.629 8.84946 4.13301C8.6457 3.63702 8.59238 3.09124 8.69626 2.5647C8.80014 2.03816 9.05654 1.5545 9.43305 1.17488C9.80955 0.795267 10.2892 0.536746 10.8115 0.43201C11.3337 0.327274 11.875 0.381028 12.3669 0.586475C12.8589 0.791921 13.2793 1.13983 13.5751 1.58621C13.871 2.03259 14.0288 2.55739 14.0288 3.09425C14.0288 3.81415 13.7452 4.50457 13.2403 5.01362C12.7355 5.52267 12.0507 5.80865 11.3367 5.80865ZM11.3367 0.741773C10.8769 0.741177 10.4272 0.878109 10.0446 1.13525C9.66199 1.39238 9.36362 1.75817 9.18725 2.18632C9.01088 2.61447 8.96442 3.08575 9.05376 3.54053C9.14311 3.99531 9.36423 4.41315 9.68916 4.74119C10.0141 5.06923 10.4282 5.29272 10.8792 5.38338C11.3301 5.47405 11.7976 5.42782 12.2224 5.25054C12.6473 5.07326 13.0105 4.7729 13.266 4.38746C13.5215 4.00202 13.6579 3.54882 13.6579 3.0852C13.6571 2.46445 13.4124 1.86931 12.9774 1.43009C12.5423 0.990873 11.9524 0.743369 11.3367 0.741773Z" fill="#70869C"/>
<path d="M11.3369 5.97764C10.7687 5.97823 10.2131 5.80885 9.74039 5.49094C9.26769 5.17302 8.89916 4.72086 8.68144 4.19168C8.46373 3.6625 8.40661 3.08009 8.51731 2.51816C8.62802 1.95624 8.90158 1.44006 9.30336 1.03495C9.70515 0.629848 10.2171 0.35403 10.7744 0.242408C11.3317 0.130786 11.9094 0.188378 12.4342 0.407895C12.9591 0.627411 13.4075 0.998984 13.7228 1.47559C14.0381 1.95219 14.2061 2.51239 14.2055 3.08529C14.2048 3.85215 13.9023 4.58736 13.3645 5.12961C12.8267 5.67185 12.0975 5.97684 11.3369 5.97764ZM11.3369 0.904727C10.9102 0.904131 10.4929 1.03116 10.1379 1.26974C9.78282 1.50831 9.50592 1.84772 9.34223 2.24501C9.17853 2.6423 9.13539 3.07962 9.21827 3.50164C9.30115 3.92366 9.50632 4.3114 9.80783 4.61582C10.1093 4.92024 10.4936 5.12764 10.9121 5.21179C11.3305 5.29594 11.7643 5.25305 12.1586 5.08856C12.5528 4.92406 12.8898 4.64535 13.127 4.28768C13.3641 3.93002 13.4906 3.50947 13.4906 3.07926C13.4898 2.50331 13.2628 1.95112 12.8591 1.54358C12.4555 1.13603 11.9081 0.906322 11.3369 0.904727Z" fill="#70869C"/>
<path d="M11.3371 6.16756C10.7317 6.16756 10.14 5.98653 9.63666 5.64737C9.13337 5.30821 8.74115 4.82617 8.50963 4.26221C8.27811 3.69826 8.21768 3.07774 8.336 2.47916C8.45431 1.88057 8.74606 1.33082 9.17432 0.899444C9.60257 0.468068 10.1481 0.174453 10.7419 0.0557447C11.3357 -0.062964 11.9511 -0.00143298 12.5102 0.232554C13.0693 0.46654 13.547 0.862468 13.8829 1.37025C14.2188 1.87803 14.3977 2.47485 14.3971 3.08521C14.3964 3.90298 14.0736 4.68698 13.4998 5.26494C12.926 5.84291 12.1481 6.16756 11.3371 6.16756ZM11.3371 0.382875C10.8046 0.382875 10.2841 0.542072 9.84138 0.840334C9.39866 1.1386 9.0536 1.56253 8.84983 2.05852C8.64607 2.55451 8.59276 3.10028 8.69663 3.62683C8.80051 4.15337 9.05692 4.63703 9.43342 5.01664C9.80992 5.39626 10.2896 5.65478 10.8118 5.75951C11.3341 5.86425 11.8754 5.81049 12.3673 5.60505C12.8592 5.3996 13.2797 5.05169 13.5755 4.60531C13.8713 4.15893 14.0292 3.63413 14.0292 3.09727C14.0292 2.37737 13.7456 1.68695 13.2407 1.1779C12.7358 0.668856 12.0511 0.382875 11.3371 0.382875ZM11.3371 5.44673C10.8731 5.44673 10.4196 5.30798 10.0338 5.04803C9.64812 4.78807 9.34754 4.4186 9.17012 3.98637C8.99271 3.55413 8.94645 3.07854 9.03718 2.61978C9.12791 2.16102 9.35156 1.73971 9.67984 1.40914C10.0081 1.07858 10.4263 0.853613 10.8814 0.762718C11.3365 0.671822 11.8081 0.719079 12.2366 0.898508C12.6651 1.07794 13.0311 1.38148 13.2885 1.77072C13.5458 2.15996 13.6828 2.61742 13.6822 3.08521C13.6814 3.7118 13.434 4.31246 12.9943 4.75524C12.5546 5.19803 11.9585 5.44673 11.3371 5.44673ZM11.3371 1.1037C10.9484 1.1037 10.5684 1.21991 10.2452 1.43764C9.92203 1.65537 9.67013 1.96484 9.52139 2.32692C9.37264 2.68899 9.33372 3.08741 9.40955 3.47178C9.48538 3.85616 9.67255 4.20923 9.9474 4.48635C10.2223 4.76347 10.5724 4.95219 10.9537 5.02864C11.3349 5.1051 11.73 5.06586 12.0891 4.91588C12.4482 4.76591 12.7552 4.51193 12.9711 4.18608C13.1871 3.86022 13.3023 3.47711 13.3023 3.08521C13.3023 2.55968 13.0953 2.05567 12.7267 1.68407C12.3582 1.31246 11.8583 1.1037 11.3371 1.1037Z" fill="#70869C"/>
<path d="M13.9061 9.00262H8.76709V8.23957C8.7667 7.8991 8.83287 7.56188 8.96183 7.24721C9.09078 6.93254 9.27999 6.64658 9.51863 6.40569C9.75727 6.1648 10.0407 5.9737 10.3526 5.84331C10.6645 5.71292 10.9989 5.64581 11.3366 5.64581C11.6743 5.64581 12.0087 5.71292 12.3206 5.84331C12.6326 5.9737 12.9159 6.1648 13.1546 6.40569C13.3932 6.64658 13.5824 6.93254 13.7114 7.24721C13.8403 7.56188 13.9065 7.8991 13.9061 8.23957V9.00262Z" fill="#70869C"/>
<path d="M14.098 9.19254H8.57605V8.23948C8.57605 7.50118 8.86694 6.79312 9.38472 6.27106C9.90249 5.74901 10.6048 5.45572 11.337 5.45572C12.0693 5.45572 12.7715 5.74901 13.2893 6.27106C13.8071 6.79312 14.098 7.50118 14.098 8.23948V9.19254ZM8.95594 8.80951H13.7181V8.23948C13.6588 7.64428 13.3824 7.09249 12.9424 6.69119C12.5024 6.28988 11.9303 6.06766 11.337 6.06766C10.7437 6.06766 10.1716 6.28988 9.7316 6.69119C9.29163 7.09249 9.0152 7.64428 8.95594 8.23948V8.80951Z" fill="#70869C"/>
<path d="M13.9062 9.34941H8.76716C8.72016 9.34981 8.67355 9.34082 8.63002 9.32297C8.58648 9.30511 8.54689 9.27873 8.51352 9.24537C8.48015 9.212 8.45366 9.1723 8.43558 9.12856C8.41751 9.08482 8.4082 9.0379 8.4082 8.99051V8.23953C8.4082 7.45643 8.71674 6.70541 9.26593 6.15168C9.81513 5.59795 10.56 5.28687 11.3367 5.28687C12.1134 5.28687 12.8582 5.59795 13.4074 6.15168C13.9566 6.70541 14.2651 7.45643 14.2651 8.23953V9.00257C14.262 9.09618 14.2227 9.18485 14.1557 9.24965C14.0886 9.31445 13.9991 9.35025 13.9062 9.34941ZM9.12013 8.62859H13.5502V8.23953C13.5502 7.64761 13.317 7.07993 12.9019 6.66138C12.4868 6.24283 11.9237 6.00769 11.3367 6.00769C10.7496 6.00769 10.1866 6.24283 9.77145 6.66138C9.35633 7.07993 9.12312 7.64761 9.12312 8.23953L9.12013 8.62859Z" fill="#70869C"/>
<path d="M13.9062 9.55442H8.76713C8.62195 9.55442 8.48272 9.49627 8.38006 9.39276C8.2774 9.28925 8.21973 9.14887 8.21973 9.00249V8.23944C8.21973 7.82674 8.30035 7.41808 8.45699 7.03679C8.61363 6.65551 8.84322 6.30906 9.13265 6.01724C9.42209 5.72541 9.76569 5.49393 10.1439 5.33599C10.522 5.17806 10.9273 5.09677 11.3366 5.09677C11.746 5.09677 12.1513 5.17806 12.5294 5.33599C12.9076 5.49393 13.2512 5.72541 13.5406 6.01724C13.8301 6.30906 14.0597 6.65551 14.2163 7.03679C14.3729 7.41808 14.4536 7.82674 14.4536 8.23944V9.00249C14.4536 9.14887 14.3959 9.28925 14.2932 9.39276C14.1906 9.49627 14.0513 9.55442 13.9062 9.55442ZM11.3366 5.47679C10.6102 5.47759 9.91372 5.76891 9.40004 6.28683C8.88635 6.80476 8.59742 7.50698 8.59663 8.23944V9.00249C8.59741 9.04756 8.61572 9.09051 8.64761 9.1221C8.6795 9.15369 8.72243 9.17139 8.76713 9.17138H13.9062C13.9506 9.17138 13.9932 9.15359 14.0246 9.12192C14.056 9.09024 14.0737 9.04728 14.0737 9.00249V8.23944C14.0737 7.50726 13.7854 6.80503 13.2722 6.28702C12.759 5.769 12.0628 5.47759 11.3366 5.47679ZM13.7297 8.83359H8.93464V8.23039C8.93464 7.91235 8.99677 7.59742 9.11749 7.30359C9.2382 7.00976 9.41513 6.74278 9.63817 6.51789C9.86122 6.293 10.126 6.11461 10.4174 5.9929C10.7089 5.87119 11.0212 5.80855 11.3366 5.80855C11.6521 5.80855 11.9644 5.87119 12.2559 5.9929C12.5473 6.11461 12.8121 6.293 13.0351 6.51789C13.2582 6.74278 13.4351 7.00976 13.5558 7.30359C13.6765 7.59742 13.7387 7.91235 13.7387 8.23039L13.7297 8.83359ZM9.31155 8.44453H13.3588V8.23341C13.3692 7.95887 13.3246 7.68502 13.2277 7.42827C13.1307 7.17152 12.9833 6.93714 12.7944 6.73917C12.6054 6.5412 12.3788 6.38371 12.1281 6.27614C11.8773 6.16857 11.6076 6.11312 11.3352 6.11312C11.0627 6.11312 10.793 6.16857 10.5422 6.27614C10.2915 6.38371 10.0649 6.5412 9.87594 6.73917C9.687 6.93714 9.53962 7.17152 9.44264 7.42827C9.34566 7.68502 9.30108 7.95887 9.31155 8.23341V8.44453Z" fill="#70869C"/>
<path d="M19.8833 19.2539C19.3509 19.2539 18.8304 19.0947 18.3876 18.7964C17.9449 18.4982 17.5999 18.0743 17.3961 17.5783C17.1923 17.0823 17.139 16.5365 17.2429 16.01C17.3468 15.4834 17.6032 14.9998 17.9797 14.6201C18.3562 14.2405 18.8359 13.982 19.3581 13.8773C19.8803 13.7725 20.4216 13.8263 20.9136 14.0317C21.4055 14.2372 21.8259 14.5851 22.1218 15.0315C22.4176 15.4778 22.5755 16.0026 22.5755 16.5395C22.5755 17.2594 22.2918 17.9498 21.787 18.4589C21.2821 18.9679 20.5973 19.2539 19.8833 19.2539ZM19.8833 14.187C19.4234 14.1864 18.9736 14.3234 18.5909 14.5807C18.2082 14.838 17.9099 15.2039 17.7336 15.6323C17.5573 16.0606 17.511 16.532 17.6006 16.9869C17.6902 17.4418 17.9116 17.8596 18.2369 18.1875C18.5621 18.5154 18.9765 18.7387 19.4276 18.829C19.8788 18.9193 20.3463 18.8727 20.7712 18.6949C21.196 18.5172 21.5589 18.2164 21.8141 17.8305C22.0693 17.4447 22.2052 16.9912 22.2046 16.5274C22.2053 16.2193 22.1459 15.914 22.0297 15.629C21.9135 15.344 21.7427 15.0849 21.5272 14.8665C21.3116 14.648 21.0555 14.4745 20.7735 14.3559C20.4914 14.2372 20.1889 14.1758 19.8833 14.175V14.187Z" fill="#70869C"/>
<path d="M19.8828 19.4229C19.3147 19.4235 18.7592 19.2542 18.2866 18.9364C17.814 18.6186 17.4454 18.1666 17.2276 17.6376C17.0098 17.1086 16.9525 16.5264 17.063 15.9645C17.1735 15.4027 17.4467 14.8865 17.8482 14.4813C18.2497 14.076 18.7614 13.8 19.3185 13.688C19.8756 13.5761 20.4532 13.6332 20.978 13.8523C21.5029 14.0713 21.9516 14.4424 22.2673 14.9186C22.583 15.3948 22.7514 15.9548 22.7514 16.5275C22.7507 17.2947 22.4483 18.0302 21.9106 18.5729C21.3728 19.1156 20.6436 19.4213 19.8828 19.4229ZM19.8828 14.356C19.456 14.3554 19.0386 14.4825 18.6835 14.7212C18.3283 14.9599 18.0515 15.2995 17.8878 15.697C17.7242 16.0945 17.6813 16.5319 17.7644 16.954C17.8475 17.3761 18.053 17.7639 18.3548 18.0682C18.6566 18.3725 19.0412 18.5796 19.4598 18.6634C19.8784 18.7472 20.3123 18.7039 20.7065 18.539C21.1007 18.374 21.4375 18.0948 21.6743 17.7368C21.9111 17.3787 22.0371 16.9579 22.0365 16.5275C22.0357 15.9519 21.8086 15.4 21.4048 14.9929C21.0011 14.5858 20.4538 14.3568 19.8828 14.356Z" fill="#70869C"/>
<path d="M19.8828 19.604C19.277 19.6046 18.6847 19.4239 18.1809 19.0848C17.6771 18.7458 17.2844 18.2636 17.0526 17.6993C16.8208 17.1351 16.7603 16.5141 16.8788 15.9152C16.9973 15.3162 17.2894 14.7662 17.7181 14.3348C18.1468 13.9033 18.6929 13.6099 19.2872 13.4916C19.8815 13.3734 20.4972 13.4356 21.0564 13.6704C21.6155 13.9052 22.093 14.3021 22.4283 14.8107C22.7636 15.3194 22.9416 15.9169 22.9399 16.5276C22.9367 17.3436 22.6134 18.1251 22.0406 18.7015C21.4678 19.2779 20.692 19.6024 19.8828 19.604ZM19.8828 13.8193C19.3497 13.8193 18.8286 13.9789 18.3855 14.2778C17.9425 14.5767 17.5975 15.0016 17.3941 15.4984C17.1908 15.9953 17.1384 16.5418 17.2435 17.0688C17.3486 17.5957 17.6065 18.0794 17.9845 18.4584C18.3625 18.8374 18.8436 19.0947 19.3668 19.1977C19.89 19.3008 20.4318 19.2449 20.9234 19.0371C21.4151 18.8293 21.8345 18.4791 22.1285 18.0307C22.4225 17.5824 22.5779 17.0561 22.5749 16.5186C22.5686 15.8029 22.2822 15.1186 21.778 14.6148C21.2738 14.111 20.5926 13.8283 19.8828 13.8283V13.8193ZM19.8828 18.8831C19.4184 18.8837 18.9644 18.7453 18.5781 18.4855C18.1919 18.2256 17.8908 17.856 17.7131 17.4235C17.5354 16.9909 17.4891 16.5149 17.58 16.0558C17.6709 15.5967 17.8949 15.1751 18.2236 14.8445C18.5524 14.5138 18.9711 14.2891 19.4267 14.1986C19.8823 14.1082 20.3542 14.1561 20.7828 14.3364C21.2113 14.5166 21.5771 14.8211 21.8339 15.2112C22.0906 15.6013 22.2267 16.0595 22.2249 16.5276C22.2242 17.154 21.9772 17.7545 21.5382 18.1977C21.0993 18.6409 20.504 18.8906 19.8828 18.8922V18.8831ZM19.8828 14.5401C19.4938 14.5377 19.1129 14.6517 18.7883 14.8678C18.4637 15.0838 18.2099 15.392 18.0592 15.7535C17.9084 16.115 17.8674 16.5135 17.9414 16.8985C18.0154 17.2835 18.201 17.6377 18.4748 17.9163C18.7486 18.1949 19.0982 18.3853 19.4793 18.4634C19.8605 18.5415 20.256 18.5038 20.616 18.3551C20.9759 18.2064 21.2839 17.9534 21.5011 17.6281C21.7183 17.3028 21.8349 16.9198 21.8361 16.5276C21.8353 16.0047 21.6295 15.5033 21.2636 15.1327C20.8978 14.7621 20.4014 14.5523 19.8828 14.5491V14.5401Z" fill="#70869C"/>
<path d="M22.4524 22.4479H17.3104V21.6848C17.3104 20.9969 17.5815 20.3372 18.0639 19.8508C18.5463 19.3643 19.2007 19.0911 19.8829 19.0911C20.5647 19.0919 21.2182 19.3655 21.7 19.8518C22.1818 20.3382 22.4524 20.9974 22.4524 21.6848V22.4479Z" fill="#70869C"/>
<path d="M22.6439 22.6378H17.1219V21.6847C17.1219 20.9464 17.4128 20.2384 17.9306 19.7163C18.4484 19.1943 19.1507 18.901 19.8829 18.901C20.6152 18.901 21.3174 19.1943 21.8352 19.7163C22.353 20.2384 22.6439 20.9464 22.6439 21.6847V22.6378ZM17.5018 22.2548H22.264V21.6847C22.2047 21.0895 21.9283 20.5377 21.4883 20.1364C21.0483 19.7351 20.4762 19.5129 19.8829 19.5129C19.2896 19.5129 18.7175 19.7351 18.2775 20.1364C17.8375 20.5377 17.5611 21.0895 17.5018 21.6847V22.2548Z" fill="#70869C"/>
<path d="M22.4528 22.8067H17.3108C17.2164 22.8067 17.1258 22.7689 17.0591 22.7016C16.9923 22.6343 16.9548 22.543 16.9548 22.4478V21.6848C16.9548 21.297 17.0306 20.9131 17.1778 20.5548C17.3249 20.1966 17.5406 19.8711 17.8126 19.5969C18.0845 19.3228 18.4073 19.1053 18.7626 18.9569C19.1179 18.8085 19.4987 18.7321 19.8833 18.7321C20.2679 18.7321 20.6487 18.8085 21.004 18.9569C21.3593 19.1053 21.6821 19.3228 21.954 19.5969C22.226 19.8711 22.4417 20.1966 22.5889 20.5548C22.736 20.9131 22.8118 21.297 22.8118 21.6848V22.4478C22.8118 22.4952 22.8025 22.5421 22.7844 22.5859C22.7663 22.6296 22.7398 22.6693 22.7065 22.7027C22.6731 22.7361 22.6335 22.7624 22.59 22.7803C22.5464 22.7981 22.4998 22.8071 22.4528 22.8067ZM17.6668 22.0859H22.0939V21.6848C22.0939 21.0929 21.8607 20.5252 21.4455 20.1066C21.0304 19.6881 20.4674 19.4529 19.8803 19.4529C19.2932 19.4529 18.7302 19.6881 18.3151 20.1066C17.9 20.5252 17.6668 21.0929 17.6668 21.6848V22.0859Z" fill="#70869C"/>
<path d="M22.4525 22.9998H17.3105C17.2377 23.001 17.1654 22.9876 17.0978 22.9604C17.0302 22.9333 16.9686 22.8929 16.9166 22.8415C16.8645 22.7902 16.8231 22.729 16.7947 22.6614C16.7663 22.5938 16.7515 22.5212 16.7511 22.4478V21.6848C16.7382 21.2637 16.8093 20.8443 16.9602 20.4514C17.1111 20.0585 17.3387 19.7002 17.6295 19.3978C17.9204 19.0953 18.2685 18.8548 18.6533 18.6906C19.0381 18.5263 19.4517 18.4417 19.8695 18.4417C20.2874 18.4417 20.701 18.5263 21.0858 18.6906C21.4705 18.8548 21.8187 19.0953 22.1095 19.3978C22.4004 19.7002 22.628 20.0585 22.7789 20.4514C22.9298 20.8443 23.0009 21.2637 22.988 21.6848V22.4478C22.9872 22.5919 22.931 22.7301 22.831 22.8331C22.7311 22.9361 22.5954 22.9959 22.4525 22.9998ZM19.883 18.9221C19.1566 18.9229 18.4601 19.2143 17.9464 19.7322C17.4327 20.2501 17.1438 20.9523 17.143 21.6848V22.4478C17.143 22.4926 17.1606 22.5356 17.1921 22.5673C17.2235 22.5989 17.2661 22.6167 17.3105 22.6167H22.4525C22.4969 22.6167 22.5396 22.5989 22.571 22.5673C22.6024 22.5356 22.62 22.4926 22.62 22.4478V21.6848C22.62 20.9526 22.3318 20.2504 21.8186 19.7324C21.3054 19.2144 20.6092 18.9229 19.883 18.9221ZM22.276 22.2789H17.478V21.6757C17.478 21.033 17.7312 20.4166 18.182 19.9622C18.6327 19.5077 19.2441 19.2524 19.8815 19.2524C20.519 19.2524 21.1303 19.5077 21.581 19.9622C22.0318 20.4166 22.285 21.033 22.285 21.6757L22.276 22.2789ZM17.8579 21.8959H21.9051V21.6848C21.9156 21.4103 21.871 21.1364 21.774 20.8797C21.677 20.6229 21.5297 20.3885 21.3407 20.1905C21.1518 19.9926 20.9252 19.8351 20.6744 19.7275C20.4237 19.6199 20.154 19.5645 19.8815 19.5645C19.609 19.5645 19.3393 19.6199 19.0886 19.7275C18.8379 19.8351 18.6112 19.9926 18.4223 20.1905C18.2334 20.3885 18.086 20.6229 17.989 20.8797C17.892 21.1364 17.8474 21.4103 17.8579 21.6848V21.8959Z" fill="#70869C"/>
<path d="M3.11696 19.2539C2.58451 19.2539 2.064 19.0947 1.62128 18.7964C1.17856 18.4982 0.833497 18.0743 0.629734 17.5783C0.425971 17.0823 0.372657 16.5365 0.476535 16.01C0.580412 15.4834 0.836816 14.9998 1.21332 14.6201C1.58983 14.2405 2.06952 13.982 2.59175 13.8773C3.11398 13.7725 3.65528 13.8263 4.14721 14.0317C4.63913 14.2372 5.05959 14.5851 5.35541 15.0315C5.65123 15.4778 5.80912 16.0026 5.80912 16.5395C5.80912 16.896 5.73949 17.2489 5.60419 17.5783C5.4689 17.9076 5.2706 18.2068 5.02061 18.4589C4.77062 18.7109 4.47383 18.9109 4.14721 19.0473C3.82058 19.1837 3.4705 19.2539 3.11696 19.2539ZM3.11696 14.187C2.65715 14.187 2.20766 14.3245 1.82538 14.5822C1.4431 14.8398 1.1452 15.206 0.969371 15.6344C0.793544 16.0627 0.747691 16.5341 0.837615 16.9887C0.927538 17.4434 1.1492 17.861 1.47455 18.1886C1.79989 18.5162 2.21431 18.7391 2.66537 18.8292C3.11642 18.9193 3.58384 18.8725 4.00848 18.6946C4.43313 18.5168 4.79592 18.216 5.05094 17.8302C5.30597 17.4444 5.44178 16.9911 5.44119 16.5274C5.44237 16.2189 5.38313 15.9132 5.26685 15.6279C5.15058 15.3425 4.97957 15.0831 4.76362 14.8645C4.54768 14.646 4.29106 14.4725 4.00849 14.3542C3.72591 14.2359 3.42294 14.175 3.11696 14.175V14.187Z" fill="#70869C"/>
<path d="M3.117 19.4229C2.54879 19.4241 1.993 19.2553 1.51998 18.9379C1.04695 18.6205 0.677957 18.1687 0.459692 17.6397C0.241427 17.1108 0.183705 16.5284 0.293831 15.9664C0.403957 15.4044 0.676981 14.8879 1.07835 14.4824C1.47971 14.0768 1.99138 13.8005 2.54858 13.6883C3.10579 13.5761 3.68349 13.6331 4.20856 13.852C4.73363 14.071 5.18247 14.4421 5.49827 14.9184C5.81408 15.3946 5.98265 15.9546 5.98265 16.5276C5.98186 17.2942 5.67988 18.0292 5.14281 18.5719C4.60574 19.1145 3.87732 19.4205 3.117 19.4229ZM3.117 14.356C2.69031 14.356 2.27322 14.4836 1.91848 14.7227C1.56375 14.9618 1.28732 15.3016 1.12417 15.6991C0.961018 16.0966 0.918483 16.534 1.00194 16.9559C1.0854 17.3778 1.29111 17.7653 1.59303 18.0693C1.89495 18.3733 2.27952 18.5801 2.69808 18.6637C3.11664 18.7473 3.55038 18.7038 3.94441 18.5387C4.33845 18.3737 4.67508 18.0945 4.9117 17.7365C5.14832 17.3785 5.27431 16.9578 5.27372 16.5276C5.27292 15.9514 5.04535 15.399 4.64097 14.9919C4.23659 14.5847 3.68848 14.356 3.117 14.356Z" fill="#70869C"/>
<path d="M3.11659 19.604C2.51098 19.604 1.91899 19.4228 1.41557 19.0833C0.91215 18.7439 0.519938 18.2615 0.288594 17.6972C0.0572489 17.1329 -0.0028247 16.5121 0.115979 15.9133C0.234782 15.3146 0.527119 14.7648 0.955978 14.3337C1.38484 13.9026 1.93093 13.6094 2.52512 13.4914C3.11931 13.3734 3.73487 13.4358 4.29387 13.6707C4.85287 13.9056 5.33016 14.3025 5.66533 14.811C6.00049 15.3196 6.17845 15.917 6.17668 16.5276C6.1743 17.3444 5.85085 18.1268 5.27723 18.7035C4.70361 19.2801 3.92663 19.604 3.11659 19.604ZM3.11659 13.8193C2.5835 13.8193 2.06241 13.9789 1.61937 14.2778C1.17633 14.5767 0.831281 15.0016 0.627964 15.4984C0.424648 15.9953 0.372215 16.5419 0.477311 17.0688C0.582406 17.5957 0.840299 18.0794 1.2183 18.4584C1.5963 18.8374 2.0774 19.0947 2.60061 19.1977C3.12382 19.3008 3.66558 19.2449 4.15724 19.0371C4.6489 18.8293 5.06832 18.4791 5.36233 18.0307C5.65634 17.5824 5.81171 17.0561 5.80875 16.5186C5.80244 15.8029 5.51602 15.1186 5.01183 14.6148C4.50763 14.111 3.82647 13.8283 3.11659 13.8283V13.8193ZM3.11659 18.8831C2.65276 18.8831 2.19935 18.7445 1.81369 18.4846C1.42803 18.2248 1.12744 17.8555 0.94994 17.4235C0.772439 16.9914 0.725997 16.516 0.816486 16.0573C0.906975 15.5986 1.13033 15.1773 1.45831 14.8466C1.78629 14.5159 2.20415 14.2907 2.65907 14.1995C3.11399 14.1083 3.58553 14.1551 4.01405 14.334C4.44257 14.513 4.80884 14.8161 5.06653 15.2049C5.32422 15.5938 5.46176 16.0509 5.46176 16.5186C5.46294 16.8299 5.40316 17.1383 5.28583 17.4262C5.1685 17.7142 4.99594 17.9759 4.77806 18.1964C4.56017 18.417 4.30124 18.5919 4.01613 18.7113C3.73101 18.8307 3.42532 18.8922 3.11659 18.8922V18.8831ZM3.11659 14.5401C2.72828 14.5407 2.34885 14.6573 2.02618 14.8751C1.70352 15.0929 1.45209 15.4022 1.30363 15.764C1.15516 16.1258 1.11632 16.5238 1.19201 16.9078C1.26769 17.2918 1.45451 17.6446 1.72888 17.9217C2.00325 18.1987 2.35287 18.3876 2.73362 18.4645C3.11437 18.5414 3.50918 18.5029 3.86822 18.3537C4.22725 18.2046 4.53442 17.9515 4.75095 17.6266C4.96749 17.3016 5.08368 16.9192 5.08486 16.5276C5.08447 16.2674 5.03324 16.0098 4.93412 15.7696C4.83499 15.5293 4.6899 15.3111 4.50713 15.1274C4.32436 14.9437 4.10749 14.798 3.8689 14.6988C3.63031 14.5996 3.37468 14.5488 3.11659 14.5491V14.5401Z" fill="#70869C"/>
<path d="M5.6834 22.4479H0.547363V21.6848C0.547363 20.9974 0.817983 20.3382 1.29977 19.8518C1.78157 19.3655 2.43513 19.0919 3.11688 19.0911C3.79811 19.0927 4.4509 19.3666 4.93205 19.8529C5.41319 20.3391 5.6834 20.998 5.6834 21.6848V22.4479Z" fill="#70869C"/>
<path d="M5.8776 22.6378H0.358673V21.6847C0.346489 21.3116 0.408847 20.9399 0.542039 20.5916C0.67523 20.2433 0.876535 19.9256 1.13398 19.6573C1.39142 19.3891 1.69974 19.1758 2.04061 19.0301C2.38147 18.8844 2.74791 18.8093 3.11814 18.8093C3.48836 18.8093 3.8548 18.8844 4.19566 19.0301C4.53653 19.1758 4.84485 19.3891 5.10229 19.6573C5.35974 19.9256 5.56104 20.2433 5.69423 20.5916C5.82742 20.9399 5.88978 21.3116 5.8776 21.6847V22.6378ZM0.735576 22.2547H5.4977V21.6847C5.5311 21.3492 5.49439 21.0104 5.38994 20.6901C5.28548 20.3698 5.1156 20.0751 4.89126 19.8251C4.66691 19.575 4.39308 19.3752 4.08741 19.2384C3.78175 19.1016 3.45105 19.0309 3.11664 19.0309C2.78223 19.0309 2.45153 19.1016 2.14586 19.2384C1.8402 19.3752 1.56637 19.575 1.34202 19.8251C1.11768 20.0751 0.947797 20.3698 0.843342 20.6901C0.738887 21.0104 0.702176 21.3492 0.735576 21.6847V22.2547Z" fill="#70869C"/>
<path d="M5.68347 22.8067H0.547431C0.500434 22.8071 0.453824 22.7981 0.410291 22.7803C0.366758 22.7624 0.327163 22.736 0.293791 22.7027C0.260419 22.6693 0.233932 22.6296 0.215856 22.5859C0.19778 22.5421 0.188475 22.4952 0.188477 22.4478V21.6848C0.188477 20.9017 0.497011 20.1507 1.04621 19.5969C1.5954 19.0432 2.34027 18.7321 3.11695 18.7321C3.89362 18.7321 4.63849 19.0432 5.18769 19.5969C5.73688 20.1507 6.04541 20.9017 6.04541 21.6848V22.4478C6.04542 22.4955 6.03602 22.5426 6.01776 22.5866C5.9995 22.6305 5.97274 22.6704 5.93905 22.7038C5.90536 22.7372 5.86541 22.7635 5.82153 22.7812C5.77765 22.7988 5.73072 22.8075 5.68347 22.8067ZM0.897411 22.0859H5.32451V21.6848C5.32451 21.0929 5.0913 20.5252 4.67618 20.1066C4.26106 19.6881 3.69803 19.4529 3.11096 19.4529C2.52389 19.4529 1.96087 19.6881 1.54575 20.1066C1.13062 20.5252 0.897411 21.0929 0.897411 21.6848V22.0859Z" fill="#70869C"/>
<path d="M5.68335 22.9998H0.547314C0.402376 22.999 0.263597 22.9406 0.161108 22.8372C0.0586196 22.7339 0.000694413 22.594 -9.11799e-05 22.4478V21.6848C-0.0130277 21.2637 0.0580601 20.8443 0.208954 20.4514C0.359848 20.0585 0.587474 19.7002 0.878323 19.3978C1.16917 19.0953 1.51732 18.8548 1.90211 18.6906C2.2869 18.5263 2.70048 18.4417 3.11832 18.4417C3.53617 18.4417 3.94975 18.5263 4.33454 18.6906C4.71933 18.8548 5.06748 19.0953 5.35833 19.3978C5.64918 19.7002 5.8768 20.0585 6.0277 20.4514C6.17859 20.8443 6.24968 21.2637 6.23674 21.6848V22.4478C6.23635 22.5207 6.22172 22.5928 6.1937 22.66C6.16568 22.7272 6.12481 22.7881 6.07342 22.8394C6.02203 22.8906 5.96114 22.9312 5.89421 22.9587C5.82728 22.9862 5.75563 23.0002 5.68335 22.9998ZM3.11085 18.9221C2.38595 18.9253 1.69177 19.2177 1.18003 19.7354C0.668287 20.253 0.380586 20.9539 0.379802 21.6848V22.4478C0.379802 22.4926 0.397451 22.5356 0.428865 22.5673C0.46028 22.5989 0.502887 22.6167 0.547314 22.6167H5.68335C5.72778 22.6167 5.77039 22.5989 5.8018 22.5673C5.83322 22.5356 5.85086 22.4926 5.85086 22.4478V21.6848C5.85008 20.9534 5.56197 20.2521 5.04958 19.7343C4.53719 19.2166 3.84225 18.9245 3.11683 18.9221H3.11085ZM5.50388 22.2789H0.714826V21.6757C0.714826 21.033 0.968051 20.4166 1.41879 19.9622C1.86954 19.5077 2.48088 19.2524 3.11832 19.2524C3.75577 19.2524 4.36711 19.5077 4.81786 19.9622C5.2686 20.4166 5.52182 21.033 5.52182 21.6757L5.50388 22.2789ZM1.09472 21.8959H5.14193V21.6848C5.1524 21.4102 5.10781 21.1364 5.01083 20.8796C4.91386 20.6229 4.76648 20.3885 4.57754 20.1905C4.3886 19.9926 4.16197 19.8351 3.91124 19.7275C3.6605 19.6199 3.39082 19.5645 3.11832 19.5645C2.84583 19.5645 2.57615 19.6199 2.32541 19.7275C2.07468 19.8351 1.84805 19.9926 1.65911 20.1905C1.47017 20.3885 1.32279 20.6229 1.22582 20.8796C1.12884 21.1364 1.08425 21.4102 1.09472 21.6848V21.8959Z" fill="#70869C"/>
</g>
<defs>
<clipPath id="clip0_2_3268">
<rect width="23" height="23" fill="white"/>
</clipPath>
</defs>
</svg>
