<svg width="23" height="23" viewBox="0 0 23 23" fill="none" xmlns="http://www.w3.org/2000/svg">
<path d="M19.2597 22.9999H12.9945C12.7692 23.003 12.552 22.9132 12.3904 22.7502C12.2289 22.5872 12.1362 22.3644 12.1327 22.1305V18.7058C12.1365 18.6599 12.1314 18.6137 12.1177 18.5698C12.104 18.526 12.082 18.4854 12.0529 18.4505C12.0141 18.4189 11.9697 18.3954 11.9222 18.3815C11.8234 18.3583 11.7215 18.3529 11.6209 18.3654C11.4878 18.36 11.3548 18.3763 11.2266 18.4137C11.1357 18.4372 11.0533 18.4875 10.9895 18.5586C10.9576 18.6064 10.942 18.6639 10.9452 18.7219V22.1305C10.9411 22.3638 10.8486 22.5859 10.6876 22.7487C10.5267 22.9115 10.3103 23.0018 10.0856 22.9999H3.81819C3.59311 23.0024 3.37621 22.9124 3.21478 22.7495C3.05335 22.5867 2.96047 22.3642 2.95639 22.1305V12.374C2.95639 12.2215 3.01474 12.0752 3.11861 11.9674C3.22248 11.8595 3.36335 11.799 3.51025 11.799C3.65714 11.799 3.79801 11.8595 3.90188 11.9674C4.00575 12.0752 4.0641 12.2215 4.0641 12.374V21.8499H9.83972V18.7058C9.83954 18.403 9.9327 18.108 10.1056 17.864C10.2986 17.6114 10.5602 17.4247 10.8566 17.3281C11.0899 17.2503 11.3338 17.2123 11.5788 17.2154C11.8026 17.1972 12.0276 17.2206 12.2435 17.2844C12.4304 17.3426 12.6044 17.4387 12.7552 17.5673C12.9122 17.71 13.0365 17.8873 13.1189 18.0863C13.2014 18.2853 13.2398 18.5009 13.2315 18.7173V21.8499H19.0138V12.374C19.0138 12.2215 19.0722 12.0752 19.176 11.9674C19.2799 11.8595 19.4208 11.799 19.5677 11.799C19.7146 11.799 19.8554 11.8595 19.9593 11.9674C20.0632 12.0752 20.1215 12.2215 20.1215 12.374V22.1305C20.1174 22.3642 20.0246 22.5867 19.8631 22.7495C19.7017 22.9124 19.4848 23.0024 19.2597 22.9999ZM0.554866 12.1578C0.44491 12.158 0.337383 12.1242 0.24598 12.0607C0.154578 11.9973 0.0834367 11.907 0.0416187 11.8014C-0.000199293 11.6959 -0.0108016 11.5798 0.0111623 11.4679C0.0331262 11.3561 0.0866621 11.2535 0.164951 11.1734C3.10261 8.15347 6.11116 5.10368 9.08426 2.11139L10.9297 0.253C11.0944 0.0905679 11.3129 0 11.5401 0C11.7672 0 11.9857 0.0905679 12.1504 0.253L22.811 11.063C22.8677 11.1145 22.9136 11.1774 22.946 11.2479C22.9784 11.3185 22.9967 11.3952 22.9996 11.4733C23.0025 11.5514 22.99 11.6293 22.963 11.7022C22.9359 11.7751 22.8948 11.8416 22.8422 11.8975C22.7896 11.9534 22.7265 11.9975 22.6569 12.0273C22.5873 12.057 22.5125 12.0717 22.4372 12.0705C22.362 12.0692 22.2877 12.052 22.2191 12.02C22.1504 11.9879 22.0887 11.9417 22.0379 11.8841L11.5367 1.2443L9.85523 2.93479C6.88656 5.92708 3.88687 8.96997 0.944781 11.9922C0.840628 12.0981 0.700681 12.1575 0.554866 12.1578Z" fill="#869AAC"/>
</svg>
