<svg width="23" height="23" viewBox="0 0 23 23" fill="none" xmlns="http://www.w3.org/2000/svg">
<g clip-path="url(#clip0_2_3340)">
<path d="M1.09307 23.0001C0.80296 22.9994 0.524939 22.8561 0.320014 22.6017C0.115089 22.3472 -6.26961e-07 22.0025 0 21.643L0 2.42936C-6.26961e-07 2.06992 0.115089 1.72517 0.320014 1.47074C0.524939 1.21632 0.80296 1.07301 1.09307 1.07227V2.48296C1.10476 2.48298 1.11602 2.47742 1.12449 2.46744C1.13297 2.45747 1.13803 2.44383 1.13861 2.42936V21.5838L10.9307 20.7543V1.98922H12.0693V22.0719L1.16822 22.9973L1.09307 23.0001Z" fill="#70869C"/>
<path d="M21.9046 23.0001H21.8318L10.9307 22.0719V1.98922H12.0693V20.7543L21.8614 21.5838V2.42936C21.8619 2.44383 21.867 2.45747 21.8755 2.46744C21.884 2.47742 21.8952 2.48298 21.9069 2.48296V1.07227C22.197 1.07301 22.475 1.21632 22.68 1.47074C22.8849 1.72517 23 2.06992 23 2.42936V21.643C23 22.003 22.8846 22.3482 22.6792 22.6027C22.4737 22.8572 22.1951 23.0001 21.9046 23.0001Z" fill="#70869C"/>
<path d="M22.4374 22.6309L21.7815 22.5095C21.7155 22.5095 14.9498 21.2484 11.5978 21.7478L10.9624 21.8409L10.91 1.46194L11.3199 1.31241C11.5477 1.22776 17.1132 -0.769782 21.9705 0.330562L22.426 0.437775L22.4374 22.6309ZM13.5243 20.2186C16.3617 20.2186 19.8618 20.7546 21.2987 21.0001V1.62276C17.5459 0.939983 13.3558 2.11368 12.0509 2.53971L12.0965 20.2835C12.5405 20.2355 13.0233 20.2186 13.5243 20.2186Z" fill="#70869C"/>
<path d="M0.523926 22.6309V0.437775L0.990757 0.330562C5.84808 -0.769782 11.4068 1.22776 11.6414 1.31241L12.0513 1.46194L11.9989 21.8409L11.3635 21.7478C8.01601 21.2484 1.24581 22.4954 1.17977 22.5095L0.523926 22.6309ZM1.66254 1.62276V21.0001C3.35452 20.718 7.89987 20.0182 10.8648 20.2722L10.9104 2.53971C9.60323 2.11368 5.41086 0.942804 1.66254 1.62276Z" fill="#70869C"/>
<path d="M2.84167 22.5062L2.64355 21.1153C2.87128 21.0673 7.88118 19.9867 10.9577 20.2688L10.9099 1.99185H12.0485L12.1009 21.8657L11.4473 21.7501C8.65316 21.2479 2.8986 22.4921 2.84167 22.5062Z" fill="#70869C"/>
<path d="M8.92216 7.28198H2.8374V7.84626H8.92216V7.28198Z" fill="#70869C"/>
<path d="M8.92216 10.16H2.8374V10.7243H8.92216V10.16Z" fill="#70869C"/>
<path d="M8.92216 13.0407H2.8374V13.605H8.92216V13.0407Z" fill="#70869C"/>
<path d="M8.92216 15.9184H2.8374V16.4826H8.92216V15.9184Z" fill="#70869C"/>
<path d="M19.6252 7.28198H13.5404V7.84626H19.6252V7.28198Z" fill="#70869C"/>
<path d="M19.6252 10.16H13.5404V10.7243H19.6252V10.16Z" fill="#70869C"/>
<path d="M19.6252 13.0407H13.5404V13.605H19.6252V13.0407Z" fill="#70869C"/>
<path d="M19.6252 4.35065H13.5404V4.91493H19.6252V4.35065Z" fill="#70869C"/>
<path d="M17.4208 15.8872H13.5496V16.4515H17.4208V15.8872Z" fill="#70869C"/>
<path d="M8.76728 4.31952H5.35144V4.8838H8.76728V4.31952Z" fill="#70869C"/>
</g>
<defs>
<clipPath id="clip0_2_3340">
<rect width="23" height="23" fill="white"/>
</clipPath>
</defs>
</svg>
