<svg width="23" height="23" viewBox="0 0 23 23" fill="none" xmlns="http://www.w3.org/2000/svg">
<g clip-path="url(#clip0_2_3257)">
<path d="M12.0224 23V18.5717L12.5108 18.5013C14.0194 18.2772 15.4161 17.5742 16.4946 16.4959C17.5731 15.4176 18.2763 14.0212 18.5004 12.5128L18.5685 12.0246H23L22.9409 12.6491C22.6716 15.2864 21.5005 17.7501 19.6251 19.6243C17.7497 21.4985 15.285 22.6683 12.647 22.9364L12.0224 23ZM13.1581 19.5391V21.7283C15.3017 21.3765 17.281 20.3619 18.8179 18.827C20.3547 17.2921 21.3716 15.3142 21.7257 13.1714H19.5339C19.2012 14.7347 18.4215 16.1678 17.2897 17.2966C16.1579 18.4254 14.7226 19.2013 13.1581 19.53V19.5391ZM10.973 23L10.3484 22.9364C7.51292 22.6508 4.88458 21.3225 2.97312 19.2092C1.06166 17.0959 0.0032959 14.3481 0.0032959 11.4989C0.0032959 8.64959 1.06166 5.90185 2.97312 3.78854C4.88458 1.67523 7.51292 0.346949 10.3484 0.0613152L10.973 0V4.43059L10.487 4.50099C8.80213 4.74242 7.26089 5.58317 6.146 6.86898C5.03112 8.1548 4.41738 9.79943 4.41738 11.5011C4.41738 13.2028 5.03112 14.8475 6.146 16.1333C7.26089 17.4191 8.80213 18.2599 10.487 18.5013L10.973 18.5717V23ZM9.83734 1.27172C7.40834 1.66609 5.19894 2.91168 3.60443 4.78565C2.00991 6.65961 1.13433 9.03967 1.13433 11.5C1.13433 13.9603 2.00991 16.3404 3.60443 18.2144C5.19894 20.0883 7.40834 21.3339 9.83734 21.7283V19.53C7.98522 19.1507 6.32089 18.1436 5.12569 16.6791C3.93049 15.2145 3.27772 13.3823 3.27772 11.4921C3.27772 9.60184 3.93049 7.7696 5.12569 6.30504C6.32089 4.84047 7.98522 3.83342 9.83734 3.45409V1.27172ZM23.0113 10.9754H18.5685L18.5004 10.4894C18.277 8.98077 17.574 7.58401 16.4954 6.50559C15.4168 5.42718 14.0197 4.72435 12.5108 4.50099L12.0224 4.43059V0L12.647 0.0613152C15.2852 0.329893 17.75 1.50021 19.6253 3.37476C21.5006 5.24931 22.6717 7.7133 22.9409 10.3509L23.0113 10.9754ZM19.5339 9.83995H21.7212C21.3698 7.6959 20.3544 5.71609 18.8182 4.17939C17.282 2.64268 15.3024 1.62651 13.1581 1.27399V3.4609C14.725 3.79166 16.1619 4.57075 17.2939 5.70333C18.4259 6.83591 19.2042 8.27311 19.5339 9.83995Z" fill="#70869C"/>
</g>
<defs>
<clipPath id="clip0_2_3257">
<rect width="23" height="23" fill="white"/>
</clipPath>
</defs>
</svg>
