<svg width="24" height="24" viewBox="0 0 24 24" fill="none" xmlns="http://www.w3.org/2000/svg">
<path fill-rule="evenodd" clip-rule="evenodd" d="M12.5 22C13.6 22 14.5 21.1 14.5 20H10.5C10.5 21.1 11.4 22 12.5 22V22ZM19 16V10.5C19 7.43 16.87 4.86 14 4.18V3.5C14 2.67 13.33 2 12.5 2C11.67 2 11 2.67 11 3.5V4.18C8.13 4.86 6 7.43 6 10.5V16L4 18V19H21V18L19 16V16Z" fill="#44556B"/>
<mask id="mask0_176_1064" style="mask-type:alpha" maskUnits="userSpaceOnUse" x="4" y="2" width="17" height="20">
<path fill-rule="evenodd" clip-rule="evenodd" d="M12.5 22C13.6 22 14.5 21.1 14.5 20H10.5C10.5 21.1 11.4 22 12.5 22V22ZM19 16V10.5C19 7.43 16.87 4.86 14 4.18V3.5C14 2.67 13.33 2 12.5 2C11.67 2 11 2.67 11 3.5V4.18C8.13 4.86 6 7.43 6 10.5V16L4 18V19H21V18L19 16V16Z" fill="white"/>
</mask>
<g mask="url(#mask0_176_1064)">
<rect width="24" height="24" fill="#657D95"/>
</g>
<path fill-rule="evenodd" clip-rule="evenodd" d="M17.5 12C19.9853 12 22 9.98528 22 7.5C22 5.01472 19.9853 3 17.5 3C15.0147 3 13 5.01472 13 7.5C13 9.98528 15.0147 12 17.5 12Z" fill="#1F8EFA"/>
</svg>
