<svg width="23" height="23" viewBox="0 0 23 23" fill="none" xmlns="http://www.w3.org/2000/svg">
<g clip-path="url(#clip0_2_3223)">
<path d="M8.70689 9.11918V8.05751C8.70689 7.47256 8.17589 6.98706 7.51898 6.98706H1.68344C1.02654 6.98706 0.492798 7.46671 0.492798 8.05751V21.8359C0.492798 22.4208 1.04022 22.9063 1.68344 22.9063H21.8095C22.4664 22.9063 23.0001 22.4267 23.0001 21.8359V11.2601C22.6114 10.0902 21.6535 10.0902 21.6535 11.1255H10.1576C8.48518 12.0644 8.70689 9.70998 8.70689 9.11918Z" fill="#536370"/>
<path d="M9.01634 17.4632C8.96314 17.4648 8.91017 17.4551 8.86046 17.4348C8.81076 17.4145 8.76528 17.3839 8.72665 17.3448C8.68801 17.3057 8.65697 17.2588 8.63529 17.2069C8.61361 17.1549 8.60172 17.0989 8.6003 17.0421L8.57019 0.485232C8.57306 0.370161 8.61842 0.260976 8.69637 0.181519C8.77432 0.102063 8.87853 0.0587895 8.98623 0.061148L21.8972 0.0377502C22.1271 0.0377502 22.3133 0.224932 22.2284 0.45891L22.2585 17.0158C22.3461 17.2497 22.16 17.4369 21.9301 17.4369L9.03276 17.4632H9.01634ZM9.11488 0.792328L9.14499 16.7145C9.1435 16.7378 9.14639 16.7612 9.15346 16.7832C9.16054 16.8053 9.17167 16.8257 9.18619 16.8431C9.20072 16.8605 9.21836 16.8747 9.23807 16.8848C9.25779 16.8948 9.27918 16.9006 9.301 16.9017L21.6399 16.8783C21.6837 16.8753 21.7247 16.8539 21.7539 16.8189C21.7831 16.7839 21.7982 16.738 21.7959 16.6911L21.7658 0.77478C21.7673 0.751107 21.7644 0.727357 21.7571 0.704918C21.7499 0.68248 21.7386 0.661805 21.7238 0.644102C21.709 0.6264 21.6911 0.612026 21.6711 0.601821C21.651 0.591617 21.6293 0.585787 21.6071 0.584673L9.27089 0.608071C9.2487 0.609545 9.22701 0.61574 9.20709 0.626293C9.18717 0.636846 9.16942 0.651544 9.15489 0.669524C9.14036 0.687504 9.12933 0.708405 9.12246 0.731C9.11559 0.753595 9.11301 0.777428 9.11488 0.801102V0.792328Z" fill="#70869C"/>
<path d="M9.03216 17.5014C8.91574 17.5038 8.80319 17.4568 8.71908 17.3708C8.63497 17.2847 8.58615 17.1666 8.58327 17.0422L8.53674 0.485385C8.5368 0.424132 8.54847 0.363527 8.57105 0.307227C8.59363 0.250927 8.62665 0.2001 8.66812 0.157816C8.75402 0.0713319 8.86761 0.0232019 8.98563 0.0232791L21.8966 -0.000118636C21.964 -0.00358146 22.031 0.0118784 22.091 0.0447205C22.1511 0.0775625 22.202 0.12664 22.2388 0.187063C22.2647 0.230091 22.2803 0.279321 22.2841 0.330356C22.2879 0.381392 22.2799 0.432644 22.2606 0.479536L22.2908 17.0218C22.3102 17.0685 22.3186 17.1196 22.3152 17.1705C22.3119 17.2215 22.2969 17.2709 22.2716 17.3142C22.2343 17.374 22.1832 17.4226 22.1233 17.4554C22.0634 17.4882 21.9967 17.504 21.9295 17.5014H9.03216ZM21.8966 0.0759241L8.98563 0.0993218C8.8835 0.0980806 8.78507 0.14015 8.71192 0.216311C8.67677 0.250391 8.64864 0.291912 8.62932 0.338235C8.61 0.384559 8.59991 0.43467 8.5997 0.485385L8.63254 17.0422C8.63611 17.1472 8.67841 17.2464 8.75021 17.3182C8.822 17.39 8.91746 17.4285 9.01574 17.4254L21.924 17.402C21.9794 17.4046 22.0346 17.3926 22.0847 17.3671C22.1348 17.3416 22.1783 17.3034 22.2114 17.2557C22.2277 17.2223 22.2362 17.1852 22.2362 17.1475C22.2362 17.1098 22.2277 17.0727 22.2114 17.0393L22.1895 0.450288C22.2058 0.416879 22.2143 0.379755 22.2143 0.342074C22.2143 0.304392 22.2058 0.267268 22.1895 0.233859C22.1577 0.182624 22.114 0.141116 22.0626 0.113422C22.0113 0.085729 21.9541 0.0728054 21.8966 0.0759241ZM9.11154 16.9633V16.9252L9.08143 0.584825H9.11427L21.7953 0.558503V0.584825L21.8282 16.9223H21.7953L9.11154 16.9633ZM9.14712 0.935792L9.17449 16.5889C9.17189 16.6251 9.1761 16.6615 9.18687 16.6959C9.19764 16.7304 9.21475 16.7622 9.2372 16.7894C9.25965 16.8167 9.28698 16.8388 9.31758 16.8546C9.34817 16.8704 9.38142 16.8795 9.41536 16.8814L21.5216 16.8609C21.5884 16.8523 21.6498 16.8177 21.6943 16.7638C21.7387 16.7098 21.763 16.6403 21.7625 16.5684L21.7324 0.912394C21.735 0.876191 21.7308 0.839798 21.72 0.80536C21.7092 0.770922 21.6921 0.739138 21.6697 0.711879C21.6472 0.684621 21.6199 0.662442 21.5893 0.646648C21.5587 0.630855 21.5255 0.621768 21.4915 0.619922L9.38525 0.64332C9.35155 0.64554 9.3186 0.654902 9.28832 0.67086C9.25804 0.686818 9.23103 0.709054 9.20887 0.736273C9.18671 0.763491 9.16983 0.795149 9.15923 0.829403C9.14863 0.863657 9.14451 0.899821 9.14712 0.935792Z" fill="#70869C"/>
<path d="M10.8309 8.98449C10.7385 8.98655 10.6464 8.97473 10.5571 8.94939C10.4011 8.90259 10.3683 8.81778 10.3683 8.75343C10.3683 8.68909 10.3984 8.60427 10.5544 8.55748C10.6437 8.53224 10.7358 8.52043 10.8281 8.52238H20.0878C20.1801 8.52043 20.2722 8.53224 20.3615 8.55748C20.5175 8.60427 20.5504 8.68909 20.5504 8.75343C20.5504 8.81778 20.5175 8.90259 20.3642 8.94939C20.275 8.97462 20.1828 8.98643 20.0905 8.98449H10.8309Z" fill="#70869C"/>
<path d="M10.8336 9.11317C10.7298 9.11279 10.6267 9.09704 10.527 9.06638C10.2807 8.99326 10.2533 8.8207 10.2533 8.74758C10.2533 8.67446 10.2779 8.5019 10.527 8.42879C10.6261 8.40058 10.7283 8.38681 10.8308 8.38784H20.0878C20.1903 8.38699 20.2925 8.40076 20.3916 8.42879C20.6407 8.5019 20.6653 8.67446 20.6653 8.74758C20.6653 8.8207 20.6407 8.99326 20.3916 9.06638C20.2926 9.09498 20.1903 9.10876 20.0878 9.10732L10.8336 9.11317ZM20.0878 8.64522H10.8308C10.7504 8.64414 10.6703 8.65496 10.5927 8.67739C10.5626 8.67739 10.4914 8.71248 10.4914 8.75051C10.4914 8.78853 10.5626 8.81485 10.5927 8.82362C10.6703 8.84605 10.7504 8.85687 10.8308 8.8558H20.0905C20.1699 8.85826 20.2492 8.84841 20.3259 8.82655C20.3587 8.82655 20.4272 8.79145 20.4272 8.75343C20.4272 8.71541 20.356 8.68909 20.3259 8.68031C20.2483 8.65789 20.1681 8.64706 20.0878 8.64814V8.64522Z" fill="#70869C"/>
<path d="M14.4494 6.94334C14.2386 6.94334 14.11 6.86144 14.11 6.73276C14.1098 6.69145 14.1245 6.65166 14.151 6.62162C14.2353 6.55212 14.3404 6.51781 14.4467 6.5251H20.1946C20.4026 6.5251 20.534 6.60407 20.534 6.73276C20.5345 6.77412 20.5197 6.81402 20.4929 6.84389C20.4087 6.91339 20.3036 6.9477 20.1973 6.94041L14.4494 6.94334Z" fill="#70869C"/>
<path d="M14.449 7.07187C14.1096 7.07187 13.9891 6.89054 13.9891 6.7326C13.9894 6.65872 14.0158 6.58766 14.063 6.53372C14.1697 6.43735 14.3068 6.38817 14.4462 6.39626H20.1942C20.5308 6.39626 20.6513 6.57759 20.654 6.7326C20.6538 6.80649 20.6274 6.87755 20.5801 6.93149C20.4735 7.02786 20.3364 7.07704 20.1969 7.06895L14.449 7.07187ZM20.1969 6.64779H14.449C14.3757 6.64046 14.3023 6.66006 14.241 6.70336C14.241 6.7677 14.3149 6.80865 14.4517 6.80865H20.1997C20.272 6.81554 20.3444 6.79594 20.4049 6.75308C20.4186 6.69166 20.3365 6.64779 20.1997 6.64779H20.1969Z" fill="#70869C"/>
<path d="M10.7265 6.94322C10.5212 6.94322 10.3953 6.86132 10.3953 6.73264C10.3951 6.69133 10.4098 6.65154 10.4363 6.6215C10.5184 6.5519 10.6219 6.51749 10.7265 6.52498H12.5412C12.7464 6.52498 12.8751 6.60395 12.8751 6.73264C12.8756 6.774 12.8608 6.8139 12.834 6.84378C12.7519 6.91337 12.6485 6.94778 12.5439 6.94029L10.7265 6.94322Z" fill="#70869C"/>
<path d="M10.7268 7.07168C10.3956 7.07168 10.2752 6.89035 10.2752 6.73241C10.2746 6.65892 10.3001 6.58792 10.3463 6.53353C10.4514 6.43626 10.588 6.3869 10.7268 6.39607H12.5415C12.8754 6.39607 12.9931 6.5774 12.9958 6.73241C12.9956 6.8063 12.9692 6.87736 12.9219 6.9313C12.8178 7.0284 12.6821 7.07778 12.5442 7.06876L10.7268 7.07168ZM12.5415 6.6476H10.7268C10.6557 6.64052 10.5844 6.65905 10.5242 6.70024C10.5242 6.77336 10.6063 6.80846 10.7268 6.80846H12.5442C12.6148 6.81518 12.6854 6.79554 12.744 6.75289C12.755 6.68269 12.6619 6.6476 12.5415 6.6476Z" fill="#70869C"/>
<path d="M17.7752 10.8886L10.2481 10.9033C10.2188 10.9003 10.1918 10.8851 10.1728 10.8611C10.1539 10.837 10.1445 10.8059 10.1468 10.7746C10.1453 10.7588 10.1467 10.7429 10.151 10.7277C10.1553 10.7126 10.1624 10.6984 10.1718 10.6862C10.1812 10.674 10.1928 10.6638 10.2059 10.6564C10.219 10.649 10.2333 10.6444 10.2481 10.643H17.7752C17.8047 10.6466 17.8318 10.6624 17.8506 10.687C17.8695 10.7115 17.8788 10.7429 17.8764 10.7746C17.8753 10.8034 17.8643 10.8309 17.8457 10.8518C17.8271 10.8728 17.8021 10.8858 17.7752 10.8886Z" fill="#70869C"/>
<path d="M10.2832 10.9823C10.2229 10.9831 10.1645 10.9602 10.119 10.918C10.0994 10.8998 10.0837 10.8773 10.0728 10.8521C10.062 10.8269 10.0562 10.7995 10.056 10.7718C10.0609 10.7123 10.0874 10.6572 10.1299 10.6184C10.1724 10.5795 10.2274 10.5601 10.2832 10.5641H19.4006C19.4563 10.5601 19.5114 10.5795 19.5538 10.6184C19.5963 10.6572 19.6228 10.7123 19.6277 10.7718C19.628 10.7989 19.6228 10.8258 19.6124 10.8505C19.602 10.8752 19.5867 10.8973 19.5675 10.9151C19.5209 10.9572 19.4616 10.9801 19.4006 10.9794H10.2832V10.9823ZM19.4006 10.7337H10.2832C10.2832 10.7337 10.2668 10.7337 10.2668 10.7601C10.2653 10.7638 10.2645 10.7677 10.2645 10.7718C10.2645 10.7758 10.2653 10.7798 10.2668 10.7835H19.3923C19.3948 10.7759 19.3948 10.7676 19.3923 10.7601C19.3962 10.7572 19.399 10.7531 19.4005 10.7483C19.402 10.7436 19.402 10.7385 19.4006 10.7337Z" fill="#70869C"/>
<path d="M10.2833 11.1137C10.1938 11.1144 10.1072 11.08 10.0397 11.0172C10.0092 10.9878 9.98486 10.952 9.96818 10.9119C9.95149 10.8719 9.94287 10.8285 9.94287 10.7847C9.94287 10.7408 9.95149 10.6975 9.96818 10.6574C9.98486 10.6174 10.0092 10.5815 10.0397 10.5522C10.1084 10.4803 10.2009 10.4403 10.297 10.441H19.4143C19.502 10.437 19.5877 10.4701 19.6527 10.533C19.7178 10.596 19.757 10.6837 19.762 10.7774C19.7619 10.8227 19.7528 10.8675 19.7353 10.9088C19.7179 10.9502 19.6924 10.9871 19.6607 11.0172C19.593 11.0796 19.5065 11.1138 19.4171 11.1137H10.2833Z" fill="#70869C"/>
<path d="M20.6402 1.64307L10.1351 1.66266L10.1406 4.99683L20.6456 4.97724L20.6402 1.64307Z" fill="#70869C"/>
<path d="M9.98462 5.15623V1.50618L20.8017 1.4857V5.13575L9.98462 5.15623ZM10.2912 1.81912V4.84036L20.4842 4.81988V1.80157L10.2912 1.81912Z" fill="#70869C"/>
<path d="M8.21135 9.21271V8.15396C8.21135 7.56901 7.68035 7.08351 7.02344 7.08351H1.18791C0.547424 7.08351 0 7.56317 0 8.15396V21.9352C0 22.5202 0.547424 23.0057 1.18791 23.0057H21.3167C21.9736 23.0057 22.5046 22.526 22.5046 21.9352V11.3536C22.5046 10.7687 21.9736 10.2832 21.3167 10.2832H9.40474C8.75878 10.2832 8.21135 9.8035 8.21135 9.21271Z" fill="#70869C"/>
</g>
<defs>
<clipPath id="clip0_2_3223">
<rect width="23" height="23" fill="white"/>
</clipPath>
</defs>
</svg>
