<svg width="20" height="20" viewBox="0 0 20 20" fill="none" xmlns="http://www.w3.org/2000/svg">
<g clip-path="url(#clip0_2_3364)">
<path d="M7.87999 8.27011C8.09538 8.27011 8.26999 8.08655 8.26999 7.86011C8.26999 7.63368 8.09538 7.45011 7.87999 7.45011C7.6646 7.45011 7.48999 7.63368 7.48999 7.86011C7.48999 8.08655 7.6646 8.27011 7.87999 8.27011Z" fill="#70869C"/>
<path d="M8.62994 7.75977C8.87295 7.75977 9.06994 7.54935 9.06994 7.28977C9.06994 7.0302 8.87295 6.81977 8.62994 6.81977C8.38694 6.81977 8.18994 7.0302 8.18994 7.28977C8.18994 7.54935 8.38694 7.75977 8.62994 7.75977Z" fill="#70869C"/>
<path d="M9.47056 7.40977C9.69147 7.40977 9.87056 7.21726 9.87056 6.97977C9.87056 6.74229 9.69147 6.54977 9.47056 6.54977C9.24964 6.54977 9.07056 6.74229 9.07056 6.97977C9.07056 7.21726 9.24964 7.40977 9.47056 7.40977Z" fill="#70869C"/>
<path d="M10.38 7.32987C10.5788 7.32987 10.74 7.15974 10.74 6.94987C10.74 6.74 10.5788 6.56987 10.38 6.56987C10.1812 6.56987 10.02 6.74 10.02 6.94987C10.02 7.15974 10.1812 7.32987 10.38 7.32987Z" fill="#70869C"/>
<path d="M11.2604 7.57008C11.4372 7.57008 11.5804 7.41786 11.5804 7.23008C11.5804 7.04231 11.4372 6.89008 11.2604 6.89008C11.0837 6.89008 10.9404 7.04231 10.9404 7.23008C10.9404 7.41786 11.0837 7.57008 11.2604 7.57008Z" fill="#70869C"/>
<path d="M12.0101 8.0599C12.1592 8.0599 12.2801 7.93007 12.2801 7.7699C12.2801 7.60974 12.1592 7.4799 12.0101 7.4799C11.861 7.4799 11.7401 7.60974 11.7401 7.7699C11.7401 7.93007 11.861 8.0599 12.0101 8.0599Z" fill="#70869C"/>
<path d="M12.5604 8.79011C12.693 8.79011 12.8004 8.67818 12.8004 8.54011C12.8004 8.40204 12.693 8.29011 12.5604 8.29011C12.4279 8.29011 12.3204 8.40204 12.3204 8.54011C12.3204 8.67818 12.4279 8.79011 12.5604 8.79011Z" fill="#70869C"/>
<path d="M12.8606 9.76001C13.0207 9.76001 13.1506 9.62569 13.1506 9.46C13.1506 9.29432 13.0207 9.16 12.8606 9.16C12.7004 9.16 12.5706 9.29432 12.5706 9.46C12.5706 9.62569 12.7004 9.76001 12.8606 9.76001Z" fill="#70869C"/>
<path d="M12.8799 10.7499C13.0622 10.7499 13.2099 10.5932 13.2099 10.3999C13.2099 10.2066 13.0622 10.0499 12.8799 10.0499C12.6977 10.0499 12.5499 10.2066 12.5499 10.3999C12.5499 10.5932 12.6977 10.7499 12.8799 10.7499Z" fill="#70869C"/>
<path d="M12.6405 11.73C12.8393 11.73 13.0005 11.5599 13.0005 11.35C13.0005 11.1401 12.8393 10.97 12.6405 10.97C12.4417 10.97 12.2805 11.1401 12.2805 11.35C12.2805 11.5599 12.4417 11.73 12.6405 11.73Z" fill="#70869C"/>
<path d="M12.0801 12.5699C12.301 12.5699 12.4801 12.3774 12.4801 12.1399C12.4801 11.9024 12.301 11.7099 12.0801 11.7099C11.8591 11.7099 11.6801 11.9024 11.6801 12.1399C11.6801 12.3774 11.8591 12.5699 12.0801 12.5699Z" fill="#70869C"/>
<path d="M11.3704 13.1599C11.6079 13.1599 11.8004 12.9584 11.8004 12.7099C11.8004 12.4613 11.6079 12.2599 11.3704 12.2599C11.1329 12.2599 10.9404 12.4613 10.9404 12.7099C10.9404 12.9584 11.1329 13.1599 11.3704 13.1599Z" fill="#70869C"/>
<path d="M10.52 13.4299C10.7354 13.4299 10.91 13.2463 10.91 13.0199C10.91 12.7934 10.7354 12.6099 10.52 12.6099C10.3046 12.6099 10.13 12.7934 10.13 13.0199C10.13 13.2463 10.3046 13.4299 10.52 13.4299Z" fill="#70869C"/>
<path d="M9.62004 13.4204C9.80229 13.4204 9.95004 13.2637 9.95004 13.0704C9.95004 12.8771 9.80229 12.7204 9.62004 12.7204C9.43779 12.7204 9.29004 12.8771 9.29004 13.0704C9.29004 13.2637 9.43779 13.4204 9.62004 13.4204Z" fill="#70869C"/>
<path d="M8.74043 13.1102C8.90612 13.1102 9.04043 12.9669 9.04043 12.7902C9.04043 12.6135 8.90612 12.4702 8.74043 12.4702C8.57474 12.4702 8.44043 12.6135 8.44043 12.7902C8.44043 12.9669 8.57474 13.1102 8.74043 13.1102Z" fill="#70869C"/>
<path d="M7.98948 12.53C8.1386 12.53 8.25948 12.4002 8.25948 12.24C8.25948 12.0799 8.1386 11.95 7.98948 11.95C7.84037 11.95 7.71948 12.0799 7.71948 12.24C7.71948 12.4002 7.84037 12.53 7.98948 12.53Z" fill="#70869C"/>
<path d="M7.45996 11.7301C7.59803 11.7301 7.70996 11.6137 7.70996 11.4701C7.70996 11.3265 7.59803 11.2101 7.45996 11.2101C7.32189 11.2101 7.20996 11.3265 7.20996 11.4701C7.20996 11.6137 7.32189 11.7301 7.45996 11.7301Z" fill="#70869C"/>
<path d="M7.14953 10.8501C7.29312 10.8501 7.40953 10.7292 7.40953 10.5801C7.40953 10.431 7.29312 10.3101 7.14953 10.3101C7.00593 10.3101 6.88953 10.431 6.88953 10.5801C6.88953 10.7292 7.00593 10.8501 7.14953 10.8501Z" fill="#70869C"/>
<path d="M7.12007 9.91988C7.28575 9.91988 7.42007 9.77662 7.42007 9.59988C7.42007 9.42315 7.28575 9.27988 7.12007 9.27988C6.95438 9.27988 6.82007 9.42315 6.82007 9.59988C6.82007 9.77662 6.95438 9.91988 7.12007 9.91988Z" fill="#70869C"/>
<path d="M7.35988 9.03976C7.5587 9.03976 7.71988 8.86962 7.71988 8.65976C7.71988 8.44989 7.5587 8.27975 7.35988 8.27975C7.16106 8.27975 6.99988 8.44989 6.99988 8.65976C6.99988 8.86962 7.16106 9.03976 7.35988 9.03976Z" fill="#70869C"/>
<path d="M6.70002 7.94001C6.86571 7.94001 7.00002 7.79674 7.00002 7.62001C7.00002 7.44328 6.86571 7.30001 6.70002 7.30001C6.53434 7.30001 6.40002 7.44328 6.40002 7.62001C6.40002 7.79674 6.53434 7.94001 6.70002 7.94001Z" fill="#70869C"/>
<path d="M7.53944 7.04989C7.73826 7.04989 7.89944 6.87976 7.89944 6.66989C7.89944 6.46003 7.73826 6.28989 7.53944 6.28989C7.34062 6.28989 7.17944 6.46003 7.17944 6.66989C7.17944 6.87976 7.34062 7.04989 7.53944 7.04989Z" fill="#70869C"/>
<path d="M8.6596 6.48002C8.90261 6.48002 9.0996 6.27407 9.0996 6.02002C9.0996 5.76597 8.90261 5.56002 8.6596 5.56002C8.4166 5.56002 8.2196 5.76597 8.2196 6.02002C8.2196 6.27407 8.4166 6.48002 8.6596 6.48002Z" fill="#70869C"/>
<path d="M9.88 6.30013C10.1561 6.30013 10.38 6.06284 10.38 5.77013C10.38 5.47742 10.1561 5.24013 9.88 5.24013C9.60386 5.24013 9.38 5.47742 9.38 5.77013C9.38 6.06284 9.60386 6.30013 9.88 6.30013Z" fill="#70869C"/>
<path d="M11.1 6.55011C11.4093 6.55011 11.66 6.28596 11.66 5.96011C11.66 5.63426 11.4093 5.37011 11.1 5.37011C10.7908 5.37011 10.54 5.63426 10.54 5.96011C10.54 6.28596 10.7908 6.55011 11.1 6.55011Z" fill="#70869C"/>
<path d="M12.2604 7.02012C12.5255 7.02012 12.7404 6.79179 12.7404 6.51012C12.7404 6.22846 12.5255 6.00012 12.2604 6.00012C11.9953 6.00012 11.7804 6.22846 11.7804 6.51012C11.7804 6.79179 11.9953 7.02012 12.2604 7.02012Z" fill="#70869C"/>
<path d="M13.1701 7.8601C13.4076 7.8601 13.6001 7.65863 13.6001 7.4101C13.6001 7.16157 13.4076 6.9601 13.1701 6.9601C12.9326 6.9601 12.7401 7.16157 12.7401 7.4101C12.7401 7.65863 12.9326 7.8601 13.1701 7.8601Z" fill="#70869C"/>
<path d="M13.7499 8.98023C13.9542 8.98023 14.1199 8.80114 14.1199 8.58023C14.1199 8.35931 13.9542 8.18023 13.7499 8.18023C13.5455 8.18023 13.3799 8.35931 13.3799 8.58023C13.3799 8.80114 13.5455 8.98023 13.7499 8.98023Z" fill="#70869C"/>
<path d="M13.9901 10.18C14.1502 10.18 14.2801 10.0457 14.2801 9.88C14.2801 9.71432 14.1502 9.58 13.9901 9.58C13.8299 9.58 13.7001 9.71432 13.7001 9.88C13.7001 10.0457 13.8299 10.18 13.9901 10.18Z" fill="#70869C"/>
<path d="M13.8404 11.4502C13.9674 11.4502 14.0704 11.3383 14.0704 11.2002C14.0704 11.0622 13.9674 10.9502 13.8404 10.9502C13.7133 10.9502 13.6104 11.0622 13.6104 11.2002C13.6104 11.3383 13.7133 11.4502 13.8404 11.4502Z" fill="#70869C"/>
<path d="M13.2801 12.7001C13.4403 12.7001 13.5701 12.5658 13.5701 12.4001C13.5701 12.2344 13.4403 12.1001 13.2801 12.1001C13.1199 12.1001 12.9901 12.2344 12.9901 12.4001C12.9901 12.5658 13.1199 12.7001 13.2801 12.7001Z" fill="#70869C"/>
<path d="M12.43 13.7303C12.6177 13.7303 12.77 13.5647 12.77 13.3603C12.77 13.156 12.6177 12.9903 12.43 12.9903C12.2422 12.9903 12.09 13.156 12.09 13.3603C12.09 13.5647 12.2422 13.7303 12.43 13.7303Z" fill="#70869C"/>
<path d="M11.3405 14.48C11.5835 14.48 11.7805 14.2696 11.7805 14.01C11.7805 13.7504 11.5835 13.54 11.3405 13.54C11.0975 13.54 10.9005 13.7504 10.9005 14.01C10.9005 14.2696 11.0975 14.48 11.3405 14.48Z" fill="#70869C"/>
<path d="M10.1099 14.76C10.375 14.76 10.5899 14.5317 10.5899 14.25C10.5899 13.9683 10.375 13.74 10.1099 13.74C9.84479 13.74 9.62988 13.9683 9.62988 14.25C9.62988 14.5317 9.84479 14.76 10.1099 14.76Z" fill="#70869C"/>
<path d="M8.90047 14.6499C9.19871 14.6499 9.44047 14.3947 9.44047 14.0799C9.44047 13.7651 9.19871 13.5099 8.90047 13.5099C8.60224 13.5099 8.36047 13.7651 8.36047 14.0799C8.36047 14.3947 8.60224 14.6499 8.90047 14.6499Z" fill="#70869C"/>
<path d="M7.76005 13.9801C8.0141 13.9801 8.22005 13.7652 8.22005 13.5001C8.22005 13.235 8.0141 13.0201 7.76005 13.0201C7.506 13.0201 7.30005 13.235 7.30005 13.5001C7.30005 13.7652 7.506 13.9801 7.76005 13.9801Z" fill="#70869C"/>
<path d="M6.85956 13.0602C7.10256 13.0602 7.29956 12.8543 7.29956 12.6002C7.29956 12.3462 7.10256 12.1402 6.85956 12.1402C6.61655 12.1402 6.41956 12.3462 6.41956 12.6002C6.41956 12.8543 6.61655 13.0602 6.85956 13.0602Z" fill="#70869C"/>
<path d="M6.24051 11.8098C6.42829 11.8098 6.58051 11.6441 6.58051 11.4398C6.58051 11.2354 6.42829 11.0698 6.24051 11.0698C6.05274 11.0698 5.90051 11.2354 5.90051 11.4398C5.90051 11.6441 6.05274 11.8098 6.24051 11.8098Z" fill="#70869C"/>
<path d="M5.9996 10.4299C6.15424 10.4299 6.2796 10.2956 6.2796 10.1299C6.2796 9.96419 6.15424 9.82988 5.9996 9.82988C5.84496 9.82988 5.7196 9.96419 5.7196 10.1299C5.7196 10.2956 5.84496 10.4299 5.9996 10.4299Z" fill="#70869C"/>
<path d="M6.18035 9.02988C6.2908 9.02988 6.38035 8.93138 6.38035 8.80988C6.38035 8.68838 6.2908 8.58988 6.18035 8.58988C6.06989 8.58988 5.98035 8.68838 5.98035 8.80988C5.98035 8.93138 6.06989 9.02988 6.18035 9.02988Z" fill="#70869C"/>
<path d="M4.72004 9.73003C4.95752 9.73003 5.15004 9.52856 5.15004 9.28003C5.15004 9.0315 4.95752 8.83003 4.72004 8.83003C4.48256 8.83003 4.29004 9.0315 4.29004 9.28003C4.29004 9.52856 4.48256 9.73003 4.72004 9.73003Z" fill="#70869C"/>
<path d="M7.42041 5.46978C7.63027 5.46978 7.80041 5.2907 7.80041 5.06978C7.80041 4.84887 7.63027 4.66978 7.42041 4.66978C7.21054 4.66978 7.04041 4.84887 7.04041 5.06978C7.04041 5.2907 7.21054 5.46978 7.42041 5.46978Z" fill="#70869C"/>
<path d="M9.00997 4.89988C9.24193 4.89988 9.42997 4.69841 9.42997 4.44988C9.42997 4.20135 9.24193 3.99988 9.00997 3.99988C8.77801 3.99988 8.58997 4.20135 8.58997 4.44988C8.58997 4.69841 8.77801 4.89988 9.00997 4.89988Z" fill="#70869C"/>
<path d="M10.6395 4.97998C10.9377 4.97998 11.1795 4.72031 11.1795 4.39998C11.1795 4.07966 10.9377 3.81998 10.6395 3.81998C10.3413 3.81998 10.0995 4.07966 10.0995 4.39998C10.0995 4.72031 10.3413 4.97998 10.6395 4.97998Z" fill="#70869C"/>
<path d="M12.2695 5.56033C12.6175 5.56033 12.8995 5.26484 12.8995 4.90033C12.8995 4.53583 12.6175 4.24033 12.2695 4.24033C11.9216 4.24033 11.6395 4.53583 11.6395 4.90033C11.6395 5.26484 11.9216 5.56033 12.2695 5.56033Z" fill="#70869C"/>
<path d="M13.6301 6.62C14.0167 6.62 14.3301 6.28869 14.3301 5.88C14.3301 5.47131 14.0167 5.14 13.6301 5.14C13.2435 5.14 12.9301 5.47131 12.9301 5.88C12.9301 6.28869 13.2435 6.62 13.6301 6.62Z" fill="#70869C"/>
<path d="M14.6901 7.86991C15.0104 7.86991 15.2701 7.5968 15.2701 7.25991C15.2701 6.92302 15.0104 6.64991 14.6901 6.64991C14.3698 6.64991 14.1101 6.92302 14.1101 7.25991C14.1101 7.5968 14.3698 7.86991 14.6901 7.86991Z" fill="#70869C"/>
<path d="M15.23 9.51C15.5393 9.51 15.79 9.24585 15.79 8.92C15.79 8.59415 15.5393 8.33 15.23 8.33C14.9208 8.33 14.67 8.59415 14.67 8.92C14.67 9.24585 14.9208 9.51 15.23 9.51Z" fill="#70869C"/>
<path d="M15.2704 11.1799C15.5135 11.1799 15.7104 10.974 15.7104 10.7199C15.7104 10.4659 15.5135 10.2599 15.2704 10.2599C15.0274 10.2599 14.8304 10.4659 14.8304 10.7199C14.8304 10.974 15.0274 11.1799 15.2704 11.1799Z" fill="#70869C"/>
<path d="M14.82 12.78C15.0188 12.78 15.18 12.6099 15.18 12.4C15.18 12.1901 15.0188 12.02 14.82 12.02C14.6211 12.02 14.46 12.1901 14.46 12.4C14.46 12.6099 14.6211 12.78 14.82 12.78Z" fill="#70869C"/>
<path d="M13.88 14.1799C14.0401 14.1799 14.17 14.0456 14.17 13.8799C14.17 13.7142 14.0401 13.5799 13.88 13.5799C13.7198 13.5799 13.59 13.7142 13.59 13.8799C13.59 14.0456 13.7198 14.1799 13.88 14.1799Z" fill="#70869C"/>
<path d="M12.5394 15.3099C12.7383 15.3099 12.8994 15.1397 12.8994 14.9299C12.8994 14.72 12.7383 14.5499 12.5394 14.5499C12.3406 14.5499 12.1794 14.72 12.1794 14.9299C12.1794 15.1397 12.3406 15.3099 12.5394 15.3099Z" fill="#70869C"/>
<path d="M11.01 16.1001C11.2696 16.1001 11.48 15.8763 11.48 15.6001C11.48 15.324 11.2696 15.1001 11.01 15.1001C10.7505 15.1001 10.54 15.324 10.54 15.6001C10.54 15.8763 10.7505 16.1001 11.01 16.1001Z" fill="#70869C"/>
<path d="M9.32993 16.1599C9.62264 16.1599 9.85993 15.9092 9.85993 15.5999C9.85993 15.2906 9.62264 15.0399 9.32993 15.0399C9.03722 15.0399 8.79993 15.2906 8.79993 15.5999C8.79993 15.9092 9.03722 16.1599 9.32993 16.1599Z" fill="#70869C"/>
<path d="M7.73989 15.7C8.07126 15.7 8.33989 15.4179 8.33989 15.07C8.33989 14.722 8.07126 14.44 7.73989 14.44C7.40852 14.44 7.13989 14.722 7.13989 15.07C7.13989 15.4179 7.40852 15.7 7.73989 15.7Z" fill="#70869C"/>
<path d="M6.3604 14.8502C6.747 14.8502 7.0604 14.5189 7.0604 14.1102C7.0604 13.7015 6.747 13.3702 6.3604 13.3702C5.9738 13.3702 5.6604 13.7015 5.6604 14.1102C5.6604 14.5189 5.9738 14.8502 6.3604 14.8502Z" fill="#70869C"/>
<path d="M5.30996 13.3098C5.64133 13.3098 5.90996 13.0232 5.90996 12.6698C5.90996 12.3163 5.64133 12.0298 5.30996 12.0298C4.97859 12.0298 4.70996 12.3163 4.70996 12.6698C4.70996 13.0232 4.97859 13.3098 5.30996 13.3098Z" fill="#70869C"/>
<path d="M4.75985 11.6503C5.05808 11.6503 5.29985 11.3907 5.29985 11.0703C5.29985 10.75 5.05808 10.4903 4.75985 10.4903C4.46162 10.4903 4.21985 10.75 4.21985 11.0703C4.21985 11.3907 4.46162 11.6503 4.75985 11.6503Z" fill="#70869C"/>
<path d="M4.7296 9.69997C4.94499 9.69997 5.1196 9.51641 5.1196 9.28997C5.1196 9.06354 4.94499 8.87997 4.7296 8.87997C4.51421 8.87997 4.3396 9.06354 4.3396 9.28997C4.3396 9.51641 4.51421 9.69997 4.7296 9.69997Z" fill="#70869C"/>
<path d="M5.17992 7.98979C5.39531 7.98979 5.56992 7.80623 5.56992 7.57979C5.56992 7.35336 5.39531 7.16979 5.17992 7.16979C4.96453 7.16979 4.78992 7.35336 4.78992 7.57979C4.78992 7.80623 4.96453 7.98979 5.17992 7.98979Z" fill="#70869C"/>
<path d="M6.10995 6.44C6.27011 6.44 6.39995 6.30568 6.39995 6.14C6.39995 5.97431 6.27011 5.84 6.10995 5.84C5.94978 5.84 5.81995 5.97431 5.81995 6.14C5.81995 6.30568 5.94978 6.44 6.10995 6.44Z" fill="#70869C"/>
<path d="M10.8006 3.14019C11.0657 3.14019 11.2806 2.91185 11.2806 2.63019C11.2806 2.34852 11.0657 2.12019 10.8006 2.12019C10.5355 2.12019 10.3206 2.34852 10.3206 2.63019C10.3206 2.91185 10.5355 3.14019 10.8006 3.14019Z" fill="#70869C"/>
<path d="M12.5799 3.69C12.8947 3.69 13.1499 3.42137 13.1499 3.09C13.1499 2.75863 12.8947 2.49 12.5799 2.49C12.2651 2.49 12.0099 2.75863 12.0099 3.09C12.0099 3.42137 12.2651 3.69 12.5799 3.69Z" fill="#70869C"/>
<path d="M14.1604 4.79001C14.5581 4.79001 14.8804 4.44975 14.8804 4.03001C14.8804 3.61028 14.5581 3.27001 14.1604 3.27001C13.7628 3.27001 13.4404 3.61028 13.4404 4.03001C13.4404 4.44975 13.7628 4.79001 14.1604 4.79001Z" fill="#70869C"/>
<path d="M15.4803 6.18C15.8946 6.18 16.2303 5.82183 16.2303 5.38C16.2303 4.93817 15.8946 4.58 15.4803 4.58C15.0661 4.58 14.7303 4.93817 14.7303 5.38C14.7303 5.82183 15.0661 6.18 15.4803 6.18Z" fill="#70869C"/>
<path d="M16.4296 7.92978C16.899 7.92978 17.2796 7.52683 17.2796 7.02978C17.2796 6.53272 16.899 6.12978 16.4296 6.12978C15.9601 6.12978 15.5796 6.53272 15.5796 7.02978C15.5796 7.52683 15.9601 7.92978 16.4296 7.92978Z" fill="#70869C"/>
<path d="M16.9399 9.74022C17.3707 9.74022 17.7199 9.37309 17.7199 8.92022C17.7199 8.46735 17.3707 8.10022 16.9399 8.10022C16.5091 8.10022 16.1599 8.46735 16.1599 8.92022C16.1599 9.37309 16.5091 9.74022 16.9399 9.74022Z" fill="#70869C"/>
<path d="M16.9805 11.63C17.3671 11.63 17.6805 11.2987 17.6805 10.89C17.6805 10.4813 17.3671 10.15 16.9805 10.15C16.5939 10.15 16.2805 10.4813 16.2805 10.89C16.2805 11.2987 16.5939 11.63 16.9805 11.63Z" fill="#70869C"/>
<path d="M16.55 13.37C16.8703 13.37 17.13 13.0969 17.13 12.76C17.13 12.4231 16.8703 12.15 16.55 12.15C16.2296 12.15 15.97 12.4231 15.97 12.76C15.97 13.0969 16.2296 13.37 16.55 13.37Z" fill="#70869C"/>
<path d="M15.6296 14.9401C15.9003 14.9401 16.1196 14.7118 16.1196 14.4301C16.1196 14.1485 15.9003 13.9201 15.6296 13.9201C15.359 13.9201 15.1396 14.1485 15.1396 14.4301C15.1396 14.7118 15.359 14.9401 15.6296 14.9401Z" fill="#70869C"/>
<path d="M14.3395 16.2301C14.5438 16.2301 14.7095 16.051 14.7095 15.8301C14.7095 15.6092 14.5438 15.4301 14.3395 15.4301C14.1351 15.4301 13.9695 15.6092 13.9695 15.8301C13.9695 16.051 14.1351 16.2301 14.3395 16.2301Z" fill="#70869C"/>
<path d="M12.7901 17.2101C12.9778 17.2101 13.1301 17.049 13.1301 16.8501C13.1301 16.6513 12.9778 16.4901 12.7901 16.4901C12.6023 16.4901 12.4501 16.6513 12.4501 16.8501C12.4501 17.049 12.6023 17.2101 12.7901 17.2101Z" fill="#70869C"/>
<path d="M11.01 17.7799C11.2199 17.7799 11.39 17.6008 11.39 17.3799C11.39 17.159 11.2199 16.9799 11.01 16.9799C10.8001 16.9799 10.63 17.159 10.63 17.3799C10.63 17.6008 10.8001 17.7799 11.01 17.7799Z" fill="#70869C"/>
<path d="M9.19007 17.9C9.46069 17.9 9.68007 17.6717 9.68007 17.39C9.68007 17.1083 9.46069 16.88 9.19007 16.88C8.91945 16.88 8.70007 17.1083 8.70007 17.39C8.70007 17.6717 8.91945 17.9 9.19007 17.9Z" fill="#70869C"/>
<path d="M7.43 17.4799C7.73928 17.4799 7.99 17.2157 7.99 16.8899C7.99 16.564 7.73928 16.2999 7.43 16.2999C7.12072 16.2999 6.87 16.564 6.87 16.8899C6.87 17.2157 7.12072 17.4799 7.43 17.4799Z" fill="#70869C"/>
<path d="M5.83002 16.6701C6.20558 16.6701 6.51002 16.3478 6.51002 15.9501C6.51002 15.5525 6.20558 15.2301 5.83002 15.2301C5.45447 15.2301 5.15002 15.5525 5.15002 15.9501C5.15002 16.3478 5.45447 16.6701 5.83002 16.6701Z" fill="#70869C"/>
<path d="M4.49008 15.4399C4.92086 15.4399 5.27008 15.0728 5.27008 14.6199C5.27008 14.167 4.92086 13.7999 4.49008 13.7999C4.0593 13.7999 3.71008 14.167 3.71008 14.6199C3.71008 15.0728 4.0593 15.4399 4.49008 15.4399Z" fill="#70869C"/>
<path d="M3.59004 13.8202C4.03187 13.8202 4.39004 13.4396 4.39004 12.9702C4.39004 12.5007 4.03187 12.1202 3.59004 12.1202C3.14821 12.1202 2.79004 12.5007 2.79004 12.9702C2.79004 13.4396 3.14821 13.8202 3.59004 13.8202Z" fill="#70869C"/>
<path d="M3.07043 11.87C3.48465 11.87 3.82043 11.5118 3.82043 11.07C3.82043 10.6282 3.48465 10.27 3.07043 10.27C2.65622 10.27 2.32043 10.6282 2.32043 11.07C2.32043 11.5118 2.65622 11.87 3.07043 11.87Z" fill="#70869C"/>
<path d="M3.00945 9.91013C3.39605 9.91013 3.70945 9.57882 3.70945 9.17013C3.70945 8.76144 3.39605 8.43013 3.00945 8.43013C2.62285 8.43013 2.30945 8.76144 2.30945 9.17013C2.30945 9.57882 2.62285 9.91013 3.00945 9.91013Z" fill="#70869C"/>
<path d="M3.47002 7.84991C3.78483 7.84991 4.04002 7.58128 4.04002 7.24991C4.04002 6.91854 3.78483 6.64991 3.47002 6.64991C3.15522 6.64991 2.90002 6.91854 2.90002 7.24991C2.90002 7.58128 3.15522 7.84991 3.47002 7.84991Z" fill="#70869C"/>
<path d="M4.37002 6.06999C4.6296 6.06999 4.84002 5.84613 4.84002 5.56999C4.84002 5.29385 4.6296 5.06999 4.37002 5.06999C4.11045 5.06999 3.90002 5.29385 3.90002 5.56999C3.90002 5.84613 4.11045 6.06999 4.37002 6.06999Z" fill="#70869C"/>
<path d="M5.63964 4.58989C5.84951 4.58989 6.01964 4.41081 6.01964 4.18989C6.01964 3.96898 5.84951 3.78989 5.63964 3.78989C5.42977 3.78989 5.25964 3.96898 5.25964 4.18989C5.25964 4.41081 5.42977 4.58989 5.63964 4.58989Z" fill="#70869C"/>
<path d="M7.24039 3.53007C7.42817 3.53007 7.58039 3.36442 7.58039 3.16007C7.58039 2.95572 7.42817 2.79007 7.24039 2.79007C7.05261 2.79007 6.90039 2.95572 6.90039 3.16007C6.90039 3.36442 7.05261 3.53007 7.24039 3.53007Z" fill="#70869C"/>
<path d="M8.98035 3.03003C9.1847 3.03003 9.35035 2.85094 9.35035 2.63003C9.35035 2.40911 9.1847 2.23003 8.98035 2.23003C8.77601 2.23003 8.61035 2.40911 8.61035 2.63003C8.61035 2.85094 8.77601 3.03003 8.98035 3.03003Z" fill="#70869C"/>
<path d="M3.64004 4.04C4.03769 4.04 4.36004 3.69526 4.36004 3.27C4.36004 2.84474 4.03769 2.5 3.64004 2.5C3.2424 2.5 2.92004 2.84474 2.92004 3.27C2.92004 3.69526 3.2424 4.04 3.64004 4.04Z" fill="#70869C"/>
<path d="M5.49044 2.43999C5.85495 2.43999 6.15044 2.12659 6.15044 1.73999C6.15044 1.35339 5.85495 1.03999 5.49044 1.03999C5.12594 1.03999 4.83044 1.35339 4.83044 1.73999C4.83044 2.12659 5.12594 2.43999 5.49044 2.43999Z" fill="#70869C"/>
<path d="M7.67004 1.37012C7.94618 1.37012 8.17004 1.13283 8.17004 0.84012C8.17004 0.547409 7.94618 0.31012 7.67004 0.31012C7.3939 0.31012 7.17004 0.547409 7.17004 0.84012C7.17004 1.13283 7.3939 1.37012 7.67004 1.37012Z" fill="#70869C"/>
<path d="M10.0004 0.98C10.2545 0.98 10.4604 0.76062 10.4604 0.49C10.4604 0.21938 10.2545 0 10.0004 0C9.74635 0 9.54041 0.21938 9.54041 0.49C9.54041 0.76062 9.74635 0.98 10.0004 0.98Z" fill="#70869C"/>
<path d="M12.3096 1.29987C12.5637 1.29987 12.7696 1.08049 12.7696 0.80987C12.7696 0.53925 12.5637 0.31987 12.3096 0.31987C12.0556 0.31987 11.8496 0.53925 11.8496 0.80987C11.8496 1.08049 12.0556 1.29987 12.3096 1.29987Z" fill="#70869C"/>
<path d="M14.5096 2.36978C14.8299 2.36978 15.0896 2.09219 15.0896 1.74978C15.0896 1.40736 14.8299 1.12978 14.5096 1.12978C14.1892 1.12978 13.9296 1.40736 13.9296 1.74978C13.9296 2.09219 14.1892 2.36978 14.5096 2.36978Z" fill="#70869C"/>
<path d="M16.3305 4.03C16.7281 4.03 17.0505 3.68526 17.0505 3.26C17.0505 2.83474 16.7281 2.49 16.3305 2.49C15.9328 2.49 15.6105 2.83474 15.6105 3.26C15.6105 3.68526 15.9328 4.03 16.3305 4.03Z" fill="#70869C"/>
<path d="M17.7505 6.21002C18.242 6.21002 18.6405 5.78469 18.6405 5.26002C18.6405 4.73535 18.242 4.31002 17.7505 4.31002C17.2589 4.31002 16.8605 4.73535 16.8605 5.26002C16.8605 5.78469 17.2589 6.21002 17.7505 6.21002Z" fill="#70869C"/>
<path d="M18.6396 8.5499C19.1698 8.5499 19.5996 8.09323 19.5996 7.5299C19.5996 6.96657 19.1698 6.5099 18.6396 6.5099C18.1094 6.5099 17.6796 6.96657 17.6796 7.5299C17.6796 8.09323 18.1094 8.5499 18.6396 8.5499Z" fill="#70869C"/>
<path d="M18.9796 11.0902C19.5429 11.0902 19.9996 10.6067 19.9996 10.0102C19.9996 9.41375 19.5429 8.93021 18.9796 8.93021C18.4163 8.93021 17.9596 9.41375 17.9596 10.0102C17.9596 10.6067 18.4163 11.0902 18.9796 11.0902Z" fill="#70869C"/>
<path d="M18.6701 13.49C19.2003 13.49 19.6301 13.0333 19.6301 12.47C19.6301 11.9067 19.2003 11.45 18.6701 11.45C18.1399 11.45 17.7101 11.9067 17.7101 12.47C17.7101 13.0333 18.1399 13.49 18.6701 13.49Z" fill="#70869C"/>
<path d="M17.7495 15.6701C18.2245 15.6701 18.6095 15.2627 18.6095 14.7601C18.6095 14.2575 18.2245 13.8501 17.7495 13.8501C17.2746 13.8501 16.8895 14.2575 16.8895 14.7601C16.8895 15.2627 17.2746 15.6701 17.7495 15.6701Z" fill="#70869C"/>
<path d="M16.3504 17.4701C16.737 17.4701 17.0504 17.1388 17.0504 16.7301C17.0504 16.3214 16.737 15.9901 16.3504 15.9901C15.9638 15.9901 15.6504 16.3214 15.6504 16.7301C15.6504 17.1388 15.9638 17.4701 16.3504 17.4701Z" fill="#70869C"/>
<path d="M14.48 18.9C14.8114 18.9 15.08 18.6179 15.08 18.27C15.08 17.9221 14.8114 17.64 14.48 17.64C14.1486 17.64 13.88 17.9221 13.88 18.27C13.88 18.6179 14.1486 18.9 14.48 18.9Z" fill="#70869C"/>
<path d="M12.32 19.6699C12.563 19.6699 12.76 19.4595 12.76 19.1999C12.76 18.9403 12.563 18.7299 12.32 18.7299C12.077 18.7299 11.88 18.9403 11.88 19.1999C11.88 19.4595 12.077 19.6699 12.32 19.6699Z" fill="#70869C"/>
<path d="M10.02 20.0002C10.263 20.0002 10.46 19.7943 10.46 19.5402C10.46 19.2862 10.263 19.0802 10.02 19.0802C9.77695 19.0802 9.57996 19.2862 9.57996 19.5402C9.57996 19.7943 9.77695 20.0002 10.02 20.0002Z" fill="#70869C"/>
<path d="M7.66043 19.7299C7.92 19.7299 8.13043 19.506 8.13043 19.2299C8.13043 18.9538 7.92 18.7299 7.66043 18.7299C7.40086 18.7299 7.19043 18.9538 7.19043 19.2299C7.19043 19.506 7.40086 19.7299 7.66043 19.7299Z" fill="#70869C"/>
<path d="M5.53007 18.9101C5.8504 18.9101 6.11007 18.6325 6.11007 18.2901C6.11007 17.9477 5.8504 17.6701 5.53007 17.6701C5.20975 17.6701 4.95007 17.9477 4.95007 18.2901C4.95007 18.6325 5.20975 18.9101 5.53007 18.9101Z" fill="#70869C"/>
<path d="M3.6502 17.4302C4.03679 17.4302 4.35019 17.0989 4.35019 16.6902C4.35019 16.2815 4.03679 15.9502 3.6502 15.9502C3.2636 15.9502 2.9502 16.2815 2.9502 16.6902C2.9502 17.0989 3.2636 17.4302 3.6502 17.4302Z" fill="#70869C"/>
<path d="M2.22949 15.75C2.7155 15.75 3.10949 15.3336 3.10949 14.82C3.10949 14.3064 2.7155 13.89 2.22949 13.89C1.74348 13.89 1.34949 14.3064 1.34949 14.82C1.34949 15.3336 1.74348 15.75 2.22949 15.75Z" fill="#70869C"/>
<path d="M1.27056 13.46C1.79523 13.46 2.22056 13.0123 2.22056 12.46C2.22056 11.9077 1.79523 11.46 1.27056 11.46C0.745886 11.46 0.320557 11.9077 0.320557 12.46C0.320557 13.0123 0.745886 13.46 1.27056 13.46Z" fill="#70869C"/>
<path d="M1.02 11.06C1.58333 11.06 2.04 10.5765 2.04 9.98002C2.04 9.38356 1.58333 8.90002 1.02 8.90002C0.45667 8.90002 0 9.38356 0 9.98002C0 10.5765 0.45667 11.06 1.02 11.06Z" fill="#70869C"/>
<path d="M2.23008 6.17988C2.72714 6.17988 3.13008 5.75455 3.13008 5.22988C3.13008 4.70521 2.72714 4.27988 2.23008 4.27988C1.73302 4.27988 1.33008 4.70521 1.33008 5.22988C1.33008 5.75455 1.73302 6.17988 2.23008 6.17988Z" fill="#70869C"/>
<path d="M1.27056 8.53C1.79523 8.53 2.22056 8.08229 2.22056 7.53001C2.22056 6.97772 1.79523 6.53001 1.27056 6.53001C0.745886 6.53001 0.320557 6.97772 0.320557 7.53001C0.320557 8.08229 0.745886 8.53 1.27056 8.53Z" fill="#70869C"/>
</g>
<defs>
<clipPath id="clip0_2_3364">
<rect width="20" height="20" fill="white"/>
</clipPath>
</defs>
</svg>
